<svg xmlns="http://www.w3.org/2000/svg" xmlns:xlink="http://www.w3.org/1999/xlink" width="117" height="70" viewBox="0 0 117 70"><defs><clipPath id="a"><path d="M0,0H21V35H0Z" fill="none"/></clipPath><clipPath id="b"><path d="M0,0H3V70H0Z" fill="none"/></clipPath></defs><g transform="translate(0 34)"><path d="M0,0H21V35H0Z" fill="none"/><g clip-path="url(#a)"><path d="M1.579,4.848C.3,11.08-1.261,28.584,1.662,32.313s21.406,3.407,19.147.122C7.682,13.458,6.32-1.361,4.1.1S1.579,4.848,1.579,4.848" transform="translate(0)"/></g></g><path d="M1.035,37.785c-3.742,5.07,3.3,6.434,10.971,6.187,11.349-.373,12.733-4.832,12.919-7.557C25.265,31.222,24.576.23,20.285,0,14.3-.313,10.516,24.943,1.035,37.785" transform="translate(59 26)"/><path d="M33.592,30.185c-2.92-2.51-12.771-13.342-12.771-13.342C18.027,15.051.742,17.012,0,17.943c0,0,24.809,43.818,36.7,44.051C53.12,62.339,44.019,46.25,81.991,6.3,87.944.054,83.649-.431,81.147.214,79.045.76,72.5,2.2,64.744,3.65c-1.962.365-10.327,10.175-29.329,26.55a1.219,1.219,0,0,1-1.822-.015" transform="translate(1)"/><path d="M14,11.452v4.536L.021,16,.009,11.916,4.544,7.975.009,4.087,0,.009,13.985,0l0,4.548-7.506.006L10.322,8l-3.881,3.46Z" transform="translate(103 54)"/><path d="M13.991,0,14,4.988.006,5,0,.015Z" transform="translate(103 46)"/><path d="M13.991,0,14,8.991,0,9V4.119l10.5-.012L10.492,0Z" transform="translate(103 34)"/><path d="M13.991,0,14,9,0,9,0,4.122l10.493-.015V.009Z" transform="translate(103 24)"/><path d="M13.991,0,14,9.994,0,10V.487l3.227,0,0,4.728L5.545,5.2V.979h2.93l0,4.223,2.316,0L10.782,0Z" transform="translate(103 13)"/><path d="M13.994,3.129,14,7.812,3.235,7.821l0,3.179L0,11,0,0H3.226l0,3.14Z" transform="translate(103 1)"/><g transform="translate(94)"><path d="M0,0H3V70H0Z" fill="none"/><g clip-path="url(#b)"><path d="M0,.012,2.991,0,3,69.994.015,70Z"/></g></g></svg>