<?xml version="1.0" encoding="utf-8"?>
<!-- Generator: Adobe Illustrator 26.2.1, SVG Export Plug-In . SVG Version: 6.00 Build 0)  -->
<svg version="1.1" id="Calque_1" xmlns="http://www.w3.org/2000/svg" xmlns:xlink="http://www.w3.org/1999/xlink" x="0px" y="0px"
	 viewBox="0 0 1746.8 538.6" style="enable-background:new 0 0 1746.8 538.6;" xml:space="preserve">
<g>
	<path d="M80.1,343.8c-0.2,0-0.4,0-0.6,0c-0.4-0.5-1-1-1.1-1.6c-0.2-0.9,0.5-1.5,1.4-1.4c0.5,0.1,1.3,0.8,1.3,1.3
		C81,342.6,80.4,343.2,80.1,343.8z M89.3,338.2c-1.1,0.1-2-0.6-2-1.5c0-1.1,0.7-1.6,1.7-1.7c1-0.1,1.7,0.4,1.9,1.5
		C90.8,337.5,90.3,338.2,89.3,338.2z M98.2,332.8c-0.9,0.3-1.7-0.6-1.7-1.6c0-0.9,0.4-1.4,1.3-1.5c1-0.1,1.8,0.6,2.1,1.9
		C99.3,331.9,98.8,332.6,98.2,332.8z"/>
	<path d="M596.5,268.4c-0.7-0.7-1.3-1.6-1.8-2.5c-0.6-0.9-1.2-1.9-1.8-2.9c-0.7-1.3-1.4-2.6-2-3.9c-0.6-1.3-1.3-1.6-2.7-1.1
		c-0.4,0.2-0.9,0.4-1.3,0.8c-4,3.4-8.7,5.5-13.1,8.2c-2.6,1.6-5,3.3-7.6,4.9c-2.8,1.7-5.7,3.3-8.6,4.9c-0.5,0.3-1.2,0.5-1.7,0.7
		c-1.4,0.6-2.8,0.8-4.2-0.1c-0.7-0.4-1.5-0.6-2.3-0.6c-3.2,0-6.5-0.4-9.5,1.2c-1.1,0.6-2.4,0.8-3.8,1.3c0-0.9,0-1.6,0-2.3
		c0.5-32.7-5.8-64.1-20.2-93.5C488.4,127.6,444.6,90.7,385,72.8C369.2,68,353,65.6,336.6,65c-0.5,0-1.1-0.1-1.6-0.2
		c-4.8,0-9.6,0-14.3,0c-2.3,0.2-4.6,0.3-6.9,0.5c-24.6,1.6-48.2,7.2-70.6,17.5c-52.6,24.1-89.4,63.1-110.3,117
		c-5.7,14.7-9.4,29.9-11.5,45.6c-2.1,15.6-2.4,31.2-1,46.9c0.2,1.9,0.4,3.8,0.6,5.8c0,0.4-0.1,0.9-0.4,1.1
		c-3.6,2.6-7.1,5.3-10.7,7.8c-4,2.8-6.8,6.3-7.4,11.2c-0.2,1.7-1,2.8-2.4,3.6c-5.9,3.4-11.7,6.8-17.5,10.3c-2.7,1.6-5.4,3.4-8.1,5.1
		c-1.9,1.1-3.9,2.2-5.9,3.2c-1.2,0.6-1.3,1.6-0.7,2.6c1.8,3.1,3.5,6.1,5.4,9.1c0.9,1.5,1.9,1.6,3.5,0.5c4.2-2.7,8.3-5.3,12.6-7.8
		c2.8-1.7,5.6-3.2,8.4-4.8c3.2-1.8,6.3-3.6,9.5-5.4c1.8-1.1,3.8-1,5.7-0.4c2.6,0.9,5.2,1,7.8,0c2.1-0.7,4.3-1.2,6.5-1.7
		c0.7-0.2,1.2,0.1,1.4,0.9c18.9,59.1,56.4,102.1,112.5,128.8c18.1,8.6,37.3,14,57.1,16.8c15.2,2.2,30.4,2.8,45.7,1.5
		c53.8-4.6,99.4-26.5,136.5-65.8c25-26.6,41.5-57.8,50.2-93.2c0.4-1.7,1.4-2.9,3.4-3.4c1.6-0.4,3.1-1.3,4.5-2.1
		c2.9-1.7,5.8-3.7,8.8-5.3c2.2-1.2,3.6-3.1,5.3-4.7c0.9-0.8,1.8-1.4,2.8-2.1c0.6-0.4,1.4-0.7,1.7-1.2c1.7-2.6,3.2-5.3,4.8-8
		c0.1-0.2,0.2-0.5,0.2-0.8c-0.1-3.3,2.5-4.3,4.8-5.6c2.4-1.4,4.8-3,7.3-4.4c3.3-1.9,6.6-3.6,9.9-5.5c4.2-2.4,8.3-4.8,12.4-7.3
		C597.7,270.4,597.7,269.6,596.5,268.4z M403.3,204.6c1-1.6,2.1-3.3,3.2-4.8c1.9-2.6,4-5.1,6-7.6c0.3-0.4,0.6-0.8,0.9-1.2
		c1.7-2.4,3.6-4.7,5.2-7.2c3-4.4,6.9-8,10.6-11.8c1.1-1.2,2.6-2,4-3c0.3-0.2,0.7-0.3,0.9-0.6c1.8-1.6,3.6-3.3,5.5-4.9
		c0.8-0.7,1.9-1.1,2.9-1.7c0.6-0.3,1.5-0.4,1.9-0.9c1.9-2.2,4.5-2.9,7.1-3.7c2.8-0.9,5.7-1.6,8.6-2.3c1.6-0.4,3.3-0.9,4.9-1.2
		c0.6-0.1,1.3-0.1,1.8,0.1c1.3,0.3,2.6,0.9,4,1.1c3.9,0.7,7.3,2.4,10.1,5.4c2,2.1,4,4.3,6,6.5c0.4,0.4,0.7,1,0.9,1.5
		c1.5,4.4,2.8,8.8,3.2,13.3c0.1,1.3,0,2.6-0.2,3.9c-0.5,3-1.2,5.9-1.9,8.8c-0.1,0.3-0.1,0.5-0.1,0.8c0,2.6-0.8,5-1.6,7.5
		c-2.3,6.8-5,13.6-8.1,20.1c-1,2.1-2.4,4.1-3.6,6.1c-0.5,0.8-1,1.5-1.3,2.4c-1.7,4.5-4.3,8.4-6.9,12.3c-2.4,3.6-5,6.9-7.3,10.5
		c-3.3,5-7.5,9.1-11.5,13.4c-0.5,0.6-1.1,1.1-1.5,1.7c-1.3,2.4-3.1,4.2-5.1,6.1c-3.4,3.2-6.5,6.7-9.9,10c-1.5,1.5-3.2,2.7-4.9,4
		c-1.3,1-2.5,2-3.8,3c-2,1.6-4,3.4-6.1,4.9c-2.9,2.1-5.8,4.2-8.9,6c-1.1,0.7-2.8,1-3.9,0.7c-3.2-0.8-6.3-2-9.5-3.1
		c-1.4-0.5-1.8-1.6-1.3-3.1c1.7-4.8,3.5-9.6,5-14.5c0.8-2.7,1.7-5.2,3.2-7.5c0.3-0.5,0.8-1.1,1.3-1.4c3.6-1.9,6.7-4.4,9.5-7.2
		c0.3-0.3,0.5-0.5,0.8-0.7c4.4-2.4,7.1-6.6,10.8-9.8c3.7-3.2,6.1-7.4,9-11.2c2.3-2.9,4.8-5.8,6.9-8.8c3.1-4.4,5.7-9.1,8.8-13.6
		c1.4-2.1,2.7-4.1,3.7-6.4c1.9-4.2,3.8-8.3,5.8-12.5c0.2-0.5,0.4-1,0.7-1.4c0.9-1.3,1.5-2.6,1.4-4.3c0-0.6,0.3-1.2,0.4-1.8
		c0.3-1.9,0.8-3.7,0.9-5.6c0.1-3-1.7-4.6-4.7-4.3c-0.3,0-0.5,0-0.6,0.1c-3.7-0.2-6.3,1.4-8.6,4c-1.1,1.2-2.4,2.3-3.5,3.6
		c-2.7,2.9-5.4,5.8-7.9,8.8c-1.7,2.1-3,4.5-4.4,6.8c-1.9,3-3.6,6.1-5.5,9.1c-1.9,3-4,5.9-5.8,8.9c-1.3,2.2-2.3,4.6-3.4,6.9
		c-2.5,4.8-5.1,9.5-7.6,14.3c-2.5,4.9-4.7,9.9-7.1,14.9c-0.2,0.4-0.5,0.9-0.5,1.4c-0.3,2.6-1.8,4.7-2.9,6.9
		c-0.7,1.4-1.3,2.8-1.8,4.2c-1.7,4.6-3.4,9.3-5,14c-0.7,2-1.3,4.1-2,6.1c-0.6,1.8-1.9,2.3-3.6,1.6c-2.2-1-4.4-1.8-6.5-2.9
		c-3.6-2-7.3-4-10-7.2c-1.7-2-2.6-4.6-2.4-7.3c0.1-1.2,0.2-2.5,0.6-3.6c1.4-4.1,2.9-8.2,4.4-12.3c1.3-3.5,2.7-6.9,4.1-10.4
		c1.3-3.2,2.6-6.4,3.9-9.6c0.1-0.2,0.2-0.5,0.3-0.7c5.1-7.9,8.5-16.7,13-25C397,214.3,400.2,209.5,403.3,204.6z M309.1,190.4
		c-0.2-0.3-0.5-0.6-0.8-0.8c-2.5-1.4-4.4-3.5-6-5.9c-2.3-3.3-4.6-6.5-5-10.8c-0.3-3.5-1-7-0.7-10.6c0.4-4.7,1.8-9,4.3-13
		c0.8-1.3,2.1-2.3,3.1-3.5c4.3-5.1,9.9-8.2,16.1-10.1c2.6-0.8,5.4-1,7.9-1.4c5.7,0.8,11.1,1.4,15.8,4.6c0.8,0.6,1.7,1,2.6,1.5
		c4.8,2.6,7.8,6.8,10.5,11.3c1.5,2.4,2.2,5.1,2.5,7.9c0.1,0.7,0.2,1.4,0.5,2.1c0.6,1.7,0.6,3.4,0.2,5.2c-0.2,1.1-0.4,2.2-0.5,3.3
		c-0.5,5.5-2.8,10.3-6.3,14.5c-1.6,2-3.4,3.9-5.4,5.5c-1.7,1.4-3.7,2.6-5.7,3.5c-3.2,1.5-6.6,2.7-10.1,3.2c-5,0.7-9.8-0.4-14.6-2
		c-0.9-0.3-1.9-0.7-2.8-1C312.6,193.2,310.6,192.3,309.1,190.4z M313.5,200.4c-1.2,3.2-2.6,6.4-3.9,9.6c-1.2,3-3.7,4.6-6.5,6
		c-1.6,0.8-3.4,1.3-5.1,1.9c-3.5-1-6.9-1.6-9.9-3.1c-4-1.9-6.4-5.5-7.5-9.9c-0.1-0.2-0.1-0.4-0.2-0.6c-2.4-6,0.1-10.6,4-14.8
		c2.2-2.3,5-3.6,7.8-4.9c0.9-0.4,1.7-1,2.6-1.5c1-0.6,1.9-0.4,2.5,0.6c1.2,1.9,2.4,3.9,3.8,5.5c2.9,3.4,6.2,6.3,10.5,7.9
		C313.9,197.9,314.2,198.4,313.5,200.4z M314.7,209.8c0.8-2.6,1.5-5.2,2.2-7.8c0.5-1.6,1-2.1,2.7-1.9c2.2,0.3,4.4,1,6.6,1.2
		c2.4,0.2,4.8,0.3,7.2,0c2-0.2,3.9-1,5.9-1.5c1.6-0.4,2.4-0.1,3,1.4c1.5,4,2.9,7.9,4.2,12c0.3,0.8,0.3,1.7,0.1,2.5
		c-1.1,5.3-4,9.3-8.8,11.8c-2.4,1.3-5,1.5-7.6,1.5c-3.1,0.1-5.7-1.2-8.5-2.4c-3.6-1.5-5.4-4.2-6.5-7.6
		C314.3,216.1,313.7,213,314.7,209.8z M345.9,200.3c-1-1.9-0.6-2.9,1.2-4c4.1-2.3,7.7-5.1,10.2-9.2c0.9-1.4,1.9-2.8,2.8-4.1
		c0.7-1.1,1.8-1.5,2.9-0.9c3.8,1.8,8,2.7,11.5,5.3c2.2,1.6,3.3,3.9,4.3,6.2c0.5,1.2,0.4,2.6,0.6,3.8c-0.5,3.5-0.5,7-2.5,9.9
		c-2.4,3.4-5.5,5.9-9.6,7c-0.8,0.2-1.6,0.6-2.5,0.7c-1.3,0.2-2.7,0.4-4,0.2c-1.6-0.3-3.2-0.9-4.8-1.4c-2.5-0.9-4.1-3-5.5-5
		C348.8,206.2,347.5,203.2,345.9,200.3z M383.7,151.1c1.8,1.6,3.7,3.3,5.4,5c1.8,1.8,2.4,4.1,2.3,6.6c0,0.8,0.1,1.6,0.1,2.4
		c0.1,0,0.1,0,0.2,0c-0.2,2.1-0.2,4.3-0.5,6.4c-0.4,2.5-2.2,4.3-3.8,6.1c-3.9,4.3-8.9,5.1-14.2,3.6c-2.7-0.7-5.3-1.9-7.9-3
		c-1.8-0.8-2.9-3-2.2-4.7c1.2-2.8,0.7-5.6,0.8-8.4c0.1-1.8,0-3.5-0.1-5.3c-0.1-1-0.3-2.1-0.7-3c-1-2.4-0.5-3.4,2-3.9
		c1.6-0.3,3.1-0.8,4.6-1.4c4.2-1.9,8.5-1.8,12.9-1.1C383,150.7,383.4,150.8,383.7,151.1z M350.7,121.1c1.6-1.9,3.6-3.1,5.9-3.9
		c1.4-0.5,2.8-1,4.3-1.3c0.9-0.2,2-0.3,2.9-0.1c4.7,1,8.8,3.2,11.8,7.1c2.1,2.7,2.7,5.8,2.9,9.3c-0.2,1.9-0.2,4-0.7,6
		c-0.6,2.4-1.7,4.7-4.1,5.9c-0.6,0.3-1,0.7-1.5,1.1c-0.2,0.2-0.4,0.5-0.7,0.6c-3.4,1.4-6.4,3.8-10.2,3.8c-0.6,0-1.4-0.6-1.8-1.1
		c-3.3-5.6-7.8-9.9-13.4-13.1c-1.8-1-2.1-1.7-1.3-3.6C346.4,128.1,348,124.3,350.7,121.1z M314.8,108.2c3.5-3.9,8-5.3,12.8-5.9
		c2-0.2,4.2,0.6,6.3,1.2c4.1,1.3,7.1,4.1,9,7.7c2.2,4.2,2.5,8.8,0.5,13.4c-0.8,1.9-1.6,3.9-2.4,5.9c-0.7,1.9-1.4,2.1-3.4,1.7
		c-3.3-0.7-6.5-1.9-9.9-1.4c-3,0.4-6,0.9-9,1.6c-1.8,0.4-2.4,0.2-3.2-1.4c-0.9-1.9-2.1-3.6-2.6-5.6c-0.8-2.9-1.1-5.8-1.5-8.4
		C311.8,113.5,312.5,110.8,314.8,108.2z M278.3,127.9c0-0.2,0.1-0.5,0.2-0.6c1.2-1.5,2.3-3.1,3.6-4.4c1.2-1.2,2.7-2.4,4.2-3.1
		c2.6-1.1,5.5-1.8,8.2-2.5c0.6-0.2,1.5,0.3,2.2,0.5c0.7,0.2,1.3,0.6,2,0.7c3.9,0.6,6.4,3.2,8.4,6.3c1.5,2.3,2.9,4.6,4.3,7
		c1.2,2,1.1,2.4-0.8,3.7c-3.6,2.5-7.5,4.7-10.2,8.3c-0.9,1.2-1.7,2.6-2.5,3.8c-0.5,0.7-0.9,1.4-1.5,2.1c-1.2,1.4-2.3,1.7-4,0.9
		c-3.2-1.6-6.3-3.3-9.5-4.8c-2.3-1.1-3.6-3.2-4.3-5.5c-0.6-2-0.9-4.1-1.2-5.9C277.9,132,278.1,129.9,278.3,127.9z M266.8,158.9
		c2.7-5,7.3-7.7,13.3-7.2c0-0.1,0-0.3,0-0.4c2.5,0.6,5.1,1.2,7.6,1.9c1.5,0.4,2.9,0.9,4.4,1.4c1.4,0.5,2.2,1.4,1.7,2.7
		c-1.2,2.9-0.6,6-0.7,8.9c-0.1,2-0.1,4.1,0.1,6.1c0.1,1,0.4,2.1,0.8,3.1c1.1,2.6,0.8,3.9-1.9,4.9c-3.2,1.2-6.3,2.4-9.6,3
		c-3.7,0.6-7.6,0.6-10.6-2.6c-1.3-1.4-3-2.4-4-3.9C264.1,171,263.7,164.8,266.8,158.9z M106.2,330.7c-1.4,1.2-2.7,2.6-4.2,3.5
		c-3,1.8-6.2,3.3-9.2,5.1c-4.7,2.8-9.3,5.7-14,8.6c-0.3,0.2-0.7,0.4-1.1,0.5c-2.3,0.8-3.9,1.2-4.8-2.2c-0.1-0.5-0.3-0.9-0.5-1.4
		c-0.8-1.9-0.7-2.7,1-3.9c1.9-1.3,3.8-2.6,5.7-3.8c3-1.8,6.1-3.4,9.2-5.1c2.6-1.5,5.1-3.3,7.6-4.8c1.7-1.1,3.4-2.1,5.2-3
		c0.4-0.2,1.2-0.2,1.7,0c1.2,0.4,3.7,4.3,3.7,5.8C106.5,330,106.4,330.5,106.2,330.7z M183.3,279.8c-1,1.4-2.1,2.7-3,4.1
		c-3.4,5.3-7.8,9.7-12.3,14.1c-2.5,2.5-4.7,5.3-7.2,7.8c-1.3,1.4-2.9,2.5-4.4,3.8c-0.2,0.2-0.5,0.3-0.7,0.5c-2.5,2.2-5,4.5-7.6,6.7
		c-2.1,1.7-4.4,3.4-6.7,4.9c-3.3,2.2-6.6,4.2-10,6.2c-2.9,1.7-11.2,3.8-15.6,3.9c-2.3-0.1-5.1-1-6.7-4.3c-0.6-1.4-1.6-2.6-2.5-3.9
		c-1.8-2.7-1.9-5.4-0.5-8.4c1.2-2.6,3-4.2,5.3-5.6c4.2-2.7,8.1-5.7,12.2-8.5c3.3-2.3,6.8-4.5,10.1-6.7c0.5-0.3,1-0.6,1.4-1
		c6.8-6.4,13.6-12.7,20.3-19.2c4.6-4.5,8.7-9.5,11.4-15.4c1.1-2.4,2-2.5,4.2-1.3c5.1,2.9,10.1,6.2,15.9,7.6c0.8,0.2,1.7,0.2,2.5,0.5
		c0.7,0.3,1.7,0.7,1.9,1.2c0.2,0.6-0.3,1.5-0.6,2.2c-0.4,0.7-1,1.4-1.4,2.1C187.4,274,185.3,276.9,183.3,279.8z M271.6,327.4
		c-2.4,1.7-4.8,3.5-7.4,5c-4.4,2.5-8.9,4.9-13.5,7.2c-1.1,0.6-2.4,0.7-3.6,1c-1.6,0.4-3.1,0.8-4.7,1.2c-4.7,1.1-9.5,2.4-14.4,1.9
		c-4.6-0.5-9.2-1.8-13.8-2.6c-3.6-0.6-6.2-2.9-9.1-4.7c-2.7-1.7-5.2-3.7-7.4-6c-0.7-0.7-1.3-1.5-1.8-2.3c-3.3-4.7-5.7-9.8-6.2-15.6
		c-0.4-5.2-0.5-10.3,0.6-15.5c0.6-2.8,1.1-5.5,1.8-8.3c0.2-0.9,0.6-1.8,1-2.6c1.1-2.6,2.2-5.1,3.3-7.7c0.7-1.4,1.5-2.8,2.4-4.2
		c2.4-3.4,4.8-6.9,7.5-10.2c2.6-3.2,5.4-6.2,8.3-9.2c2.5-2.5,5.2-4.8,7.7-7.2c0.8-0.7,1.1-1.7,0.3-2.7c-0.7-0.8-1.7-0.7-2.4,0
		c-4.3,4.1-8.6,8.2-12.8,12.4c-1.6,1.6-3,3.6-4.6,5.3c-1.1,1.2-2.5,1.6-4.1,1.3c-3.4-0.6-6.8-1.1-10.2-1.9c-1.9-0.5-3.8-1.3-5.6-2.2
		c-4-2.1-8.1-4-11.8-6.5c-2.4-1.6-4.4-3.9-6.4-6.1c-1.8-2-3.4-4.2-4.9-6.4c-2.7-4.1-3.6-9-5-13.6c-1.6-5.3-1-10.3,0.2-15.6
		c1.6-7,5.7-12.1,10.9-16.6c2.9-2.6,6.1-4.4,9.9-5.3c2.2-0.5,4.4-1.2,6.7-1.6c1-0.2,2.1-0.1,3.2,0.1c3.9,0.6,7.3,2.5,10.9,4
		c5.4,2.3,8.2,6.8,9.9,11.9c1,3.1,1.1,6.6,1.5,9.9c0.5,3.9,0,7.8-0.6,11.7c-0.3,2-0.4,4-0.7,6c-0.2,0.9-0.7,1.9-1.3,2.6
		c-0.9,1.2-2.3,1.5-3.8,1c-4.3-1.6-8.6-3.2-12.5-5.8c-3.2-2.2-5.9-4.8-6-9.2c0-1.5-0.5-2.9-0.8-4.3c-0.2-1-0.8-1.7-1.8-1.7
		c-1.2-0.1-2.5,0-2.9,1.2c-0.6,1.5-1.1,3.2-0.9,4.8c0.3,2.5,1.4,4.8,3.5,6.4c1.3,1,2.5,2.2,3.8,3.2c3.8,3,8,5.2,12.5,6.8
		c1.4,0.5,2.9,1.2,4.3,1.4c3.2,0.4,6.4,0.5,9.9,0.8c3.6-0.3,7.5-0.7,11.3-1.1c0.2,0,0.5-0.1,0.7-0.2c3.2-1.9,6.9-2.3,10.4-2.8
		c4.2-0.6,8.5-0.6,12.1,2.5c1.6,1.4,3.5,2.5,4.8,4.3c0.2,0.3,0.5,0.6,0.6,0.9c2.4,6.4,1.7,12.6-2,18.3c-1.2,1.8-3,3.1-4.5,4.6
		c-3.1,3.1-6,6.6-9.4,9.2c-3.9,3-6.6,6.9-9.6,10.7c-2.4,3-4.4,6.3-5.4,10.2c-1,3.6-0.9,7.1-0.7,10.7c0.1,1.2,0.7,2.5,1.5,3.5
		c2.5,3.3,5.8,5.7,10.1,6.1c0.4,0,0.9,0.1,1.3,0c2.7-0.5,5.5-0.8,8.1-1.7c2.8-0.9,5.3-2.4,8-3.6c0.5-0.2,1-0.6,1.6-0.8
		c3.4-1.3,6.3-3.2,8.9-5.8c1.8-1.8,3.9-3.3,5.9-4.9c0.9-0.7,2-0.4,2.3,0.8c0.3,1.2,0.4,2.4,0.5,3.6c0.3,2.7,0.4,5.4,1,8
		c1.1,4.4,2.6,8.7,4,13C272.7,325.7,272.5,326.7,271.6,327.4z M346.7,335.8c-6.3,1.9-12.4,4.6-19.1,5c-4.4,0.3-8.7,1.1-13,1
		c-5.6-0.1-11.2-0.6-16.8-1.6c-4.2-0.7-8-2.6-11.5-5.1c-1.7-1.2-3.6-2.1-4.9-4c-2-3-4.5-5.7-6.3-8.9c-1.2-2.2-1.7-4.8-2.5-7.2
		c-0.5-1.5-1-3.1-1.3-4.7c-0.4-2.9-0.6-5.9-0.9-8.3c-0.3-5.9,0-11.2,1.5-16.3c0.5-1.5,0.3-3.3,0.8-4.8c2.4-7.7,5.4-15.2,9.3-22.2
		c1.3-2.4,2.6-4.8,4-7.2c0.1-0.1,0.1-0.2,0.2-0.3c3.9-3.8,6.5-8.7,11-12c1.8-1.4,3.6-2.8,5.5-4.2c1.1-0.9,9.2-2.5,10.5-2.3
		c5.1,1,9.3,3.6,12.5,7.6c0.4,0.5,0.6,1.1,0.7,1.7c0.3,1.7,0.5,3.4,0.8,5.1c0.5,2.4,0.3,4.8-0.3,7.2c-0.4,1.5-0.2,3.2-0.7,4.6
		c-1.2,3.1-2.6,6-4,9c-0.6,1.3-1.3,2.6-1.9,3.8c-0.7,1.3-1.4,2.6-2.2,3.9c-2.7,4-5.4,8.1-8.1,12.1c-1.3,1.9-2.6,3.8-3.9,5.6
		c-0.3,0.4-0.6,0.8-1,1c-0.4,0.2-1.1,0.5-1.4,0.3c-0.4-0.2-0.7-0.8-0.8-1.3c-0.1-0.7,0.1-1.4,0.2-2.1c0.6-2.4,1.6-4.8,1.9-7.3
		c0.5-3.8,2.2-7.2,3.7-10.7c1.4-3.1,3.4-5.9,5-8.9c0.7-1.3,1.1-2.8,1.6-4.3c0.1-0.3-0.3-1.1-0.6-1.1c-0.6-0.1-1.6-0.1-2,0.2
		c-1.2,1.4-2.3,3-3.3,4.6c-0.6,1-1.1,2.1-1.6,3.2c-1.7,3.6-3.4,7.2-4.9,10.8c-0.7,1.7-1.2,3.5-1.6,5.3c-1.1,4.5-2,9-1.7,13.7
		c0.2,3.4,1.3,6.3,2.9,9.1c0.8,1.3,1.7,2.6,2.5,3.8c0.3,0.4,0.6,0.8,1,1.1c5.4,3.9,11.5,5.2,18,3.8c3.1-0.6,6-1.7,9-2.7
		c2.3-0.7,4.5-1.5,6.8-2.2c0.4-0.1,1.1,0,1.5,0.3c1.1,0.8,2.2,1.7,3.2,2.6c1.6,1.3,3.2,2.8,4.9,4c2.5,1.7,3.3,3.7,2.6,6.6
		c-0.7,2.6-1.4,5.2-1.8,7.9C349.9,333.6,348.8,335.2,346.7,335.8z M425.1,405.3c-0.7,8.5-4.4,15.8-9.3,22.5c-1.5,2-2.9,4.1-4.7,5.8
		c-1.7,1.6-3.7,3-5.8,4.2c-7.8,4.8-16.1,4.7-24.4,1.7c-3.3-1.2-6.2-3.4-8.8-5.9c-1.6-1.6-3.5-3.1-4.8-4.9c-1.8-2.5-3.2-5.3-4.7-7.9
		c-0.1-0.1,0-0.3-0.1-0.4c-2.6-3.4-3-7.7-5-11.3c-1-2-1.4-4.3-2.1-6.5c-0.5-1.6-0.9-3.2-1.2-4.8c-0.7-3.4-1.5-6.8-1.9-10.2
		c-0.5-3.8-0.8-7.6-1.1-11.4c-0.2-2.3-0.3-4.6-0.4-6.9c-0.1,0-0.2,0-0.2,0c0.3-5.4,0.6-10.9,0.9-16.3c0.3-5.4,0.3-10.8,1.1-16.2
		c0.7-4.6,2.1-9.2,3.3-13.8c0.3-1,1-1.1,1.9-0.7c5.2,2.3,10.4,4.5,15.6,6.7c1.4,0.6,2.9,0.9,4.4,1.3c2.3,0.6,2.6,1.4,2.1,3.7
		c-0.9,4.5-1.8,9.1-2.3,13.7c-0.5,4.4-0.6,8.8-0.7,13.2c-0.1,4.2,0,8.5,0,12.7c0,0.4,0,0.9,0.1,1.3c0.6,4,1.2,7.9,1.9,11.8
		c0.3,1.6,0.8,3.2,1.3,4.8c0.8,2.9,1.7,5.9,2.5,8.8c0.7,2.5,1.8,4.7,3.4,6.7c3.1,3.7,8.1,2.9,10.2-0.5c1.6-2.6,2.1-5.5,2.4-8.5
		c0.2-2.7-0.1-5.5,0.8-8.2c0.2-0.7,0-1.5,0-2.3c-0.3-2.3-0.5-4.5-0.8-6.8c-0.2-1.5-0.5-2.9-0.7-4.4c-0.4-2-0.6-4-1.1-6
		c-0.6-2.3-1.3-4.5-2-6.7c-0.4-1.2-0.8-2.4-1.1-3.6c-2.3-7.5-4.7-14.9-8.6-21.8c-0.6-1.1-1.1-2.4-1.5-3.6c-0.4-1.4,0.1-2.1,1.7-1.9
		c2.7,0.4,5.3,1,7.9,1.5c3,0.6,6.1,1.2,9.1,1.8c3.2,0.7,6.5,1.4,9.6,2.5c1,0.3,1.9,1.5,2.4,2.5c1.1,2,2,4.2,2.9,6.4
		c0.3,0.6,0.4,1.3,0.5,1.9c0.3,1.2,0.7,2.4,1,3.6c0.8,2.6,1.6,5.1,2.4,7.7c0.2,0.7,0.4,1.5,0.6,2.2c1.6,4.3,2.9,8.6,2.8,13.2
		c0,1.7,0.5,3.5,0.6,5.2c0.2,3.2,0.3,6.4,0.4,9.6c0,0.2-0.1,0.5,0,0.7C427.1,396.3,425.5,400.8,425.1,405.3z M558.1,293.7
		c-0.9,3.5-3.6,5.7-6,8.1c-1.3,1.3-2.7,2.7-4.1,3.9c-1.1,0.9-2.4,1.7-3.7,2.5c-2.3,1.4-4.5,2.8-6.8,4.1c-2.9,1.5-5.9,2.9-8.8,4.3
		c-1.1,0.5-2.1,1.1-3.2,1.5c-1.6,0.7-3.3,1.2-4.9,1.8c-0.5,0.2-0.9,0.3-1.4,0.5c-3.5,1.4-6.9,2.8-10.4,4.2
		c-3.7,1.5-7.5,2.9-11.2,4.2c-2.6,0.9-5.4,1.5-8.1,2.3c-5,1.3-10.1,2.1-15.3,2.6c-3.6,0.3-7.1,1.4-10.7,1.8
		c-2.6,0.3-5.2,0.2-7.8,0.4c-4.5,0.2-9,0.5-13.5,0.7c-2.2,0.1-4.5,0-6.8,0c0,0,0,0.1,0,0.1c-5-0.2-9.9-0.2-14.8-0.6
		c-3.5-0.3-6.9-1.1-10.4-1.7c-3-0.5-6-0.9-9-1.4c-2.2-0.4-4.4-0.8-6.6-1.3c-3.1-0.7-6.2-1.4-9.4-2.1c-0.6-0.1-1.2-0.4-1.8-0.6
		c-2.1-0.7-4.2-1.4-6.3-2.1c-0.9-0.3-1.8-0.5-2.6-0.8c-5.1-2.5-10.1-5.3-15.4-7.5c-6.7-2.8-11.6-7.7-16.5-12.8
		c-1.1-1.2-1.9-2.8-2.5-4.3c-1.1-2.8-2-5.8-3-8.7c-0.1-0.4-0.2-0.8-0.1-1.2c0.9-3.2,1.6-6.5,2.9-9.5c1.3-2.8,3.6-5,6.6-6.1
		c2.1-0.8,4.3-1.5,6.5-2c1.6-0.3,3.2-0.1,4.8,0c1.3,0.1,2.6,0.5,3.9,0.6c1.4,0.2,2.3,0.9,2.4,2.3c0.3,2.6,0.6,5.3,0.7,7.9
		c0.1,1.3,0.3,2.4,1.3,3.4c0.6,0.6,1,1.4,1.6,2c0.9,1,1.9,2,3,2.8c1.8,1.3,3.6,2.4,5.5,3.6c2.1,1.3,4.1,2.6,6.3,3.6
		c1.9,0.9,4,1.5,6.1,2.2c4.5,1.5,9,3,13.5,4.4c1.5,0.5,3.2,0.7,4.8,1c2.8,0.5,5.7,1,8.5,1.3c2.1,0.2,4.2,0,6.3,0.2
		c2,0.1,3.9,0.5,5.9,0.8c0.7,0.1,1.4,0.3,2.1,0.3c7.6,0,15.1,0,22.7-0.1c1.4,0,2.7-0.4,4.1-0.7c0,0,0.1,0,0.1,0
		c3.8-0.6,7.6-1.1,11.4-1.7c2-0.3,3.9-0.6,5.8-1c3.6-0.8,7.2-1.5,10.8-2.6c4.7-1.4,9.3-3.1,14-4.6c2-0.7,4.2-1.2,6.1-2.2
		c5.4-2.6,10.8-5.4,16.2-8c4.3-2.1,8.6-4.1,12.9-6c0.7-0.3,1.5-0.5,2.3-0.7c3.2-0.9,6.3-1.9,9.5-2.7c1.2-0.3,2.6-0.3,3.8,0.1
		c2.4,0.7,4.3,2.2,5.6,4.4c1,1.7,2,3.4,2.9,5.2C558.6,291.1,558.5,292.3,558.1,293.7z M590.9,270.9c-3.5,1.9-6.9,3.7-10.4,5.7
		c-1.4,0.8-2.7,1.8-4,2.7c-3.1,1.9-6.2,3.8-9.4,5.6c-1.3,0.8-2.7,1.4-4.1,2.1c-0.3,0.1-0.6,0.2-1.1,0.3c-0.5-0.3-1.2-0.4-1.6-0.9
		c-0.9-1-1.7-2-2.3-3.1c-0.7-1.3-0.2-2.6,1.1-3.5c1.2-0.8,2.3-1.7,3.5-2.5c0.3-0.2,0.6-0.6,0.9-0.6c2.8-0.5,4.7-2.7,7.2-3.8
		c1.4-0.7,2.7-1.8,4-2.7c1.1-0.7,2.3-1.4,3.4-2.1c2.9-1.6,5.8-3.1,8.6-4.7c1-0.6,1.8-0.4,2.4,0.4c1,1.5,2,3.1,2.8,4.8
		C592.5,269.3,592,270.3,590.9,270.9z"/>
	<path d="M89,335c-1,0.1-1.7,0.5-1.7,1.7c0,0.9,1,1.6,2,1.5c1.1-0.1,1.5-0.7,1.6-1.7C90.7,335.4,90,335,89,335z"/>
	<path d="M97.8,329.7c-0.9,0.1-1.4,0.6-1.3,1.5c0,1,0.8,1.8,1.7,1.6c0.6-0.2,1.1-0.8,1.7-1.2C99.6,330.3,98.8,329.6,97.8,329.7z"/>
	<path d="M79.7,340.8c-0.8-0.1-1.5,0.5-1.4,1.4c0.1,0.6,0.7,1.1,1.1,1.6c0.2,0,0.4,0,0.6,0c0.3-0.6,1-1.2,0.9-1.7
		C81,341.6,80.2,340.9,79.7,340.8z"/>
	<path d="M565.1,279.1c-1.3,0-2,0.6-2,1.7c0,1.2,0.7,1.9,1.9,2c1.2,0,2.1-0.7,2.1-1.8C567.1,279.8,566.3,279.1,565.1,279.1z"/>
	<path d="M573.4,273.9c-1.1,0-1.6,0.7-1.7,1.7c-0.1,1,0.6,1.5,1.6,1.6c1.2,0,1.5-0.8,1.6-1.7C574.9,274.5,574.4,273.9,573.4,273.9z"
		/>
	<path d="M581.5,270.5c-0.1,1,0.5,1.5,1.5,1.6c1.2,0,1.5-0.9,1.6-2.3c-0.3-0.2-0.8-0.8-1.3-0.9C582.2,268.8,581.6,269.5,581.5,270.5
		z"/>
</g>
<g>
	<path d="M709.8,232.5h-16.4v38.3h-26.9V165.9h50.1c12.7,0,22.5,2.9,29.3,8.6c6.8,5.7,10.3,14,10.3,24.8c0,7.6-1.7,14-5.2,19.1
		c-3.5,5.1-8.6,8.8-15.3,11.3l26.7,41.2h-30.2L709.8,232.5z M693.4,213.1H712c5.8,0,10.1-1.1,12.7-3.2c2.6-2.1,4-5.5,4-10.2
		c0-4.6-1.3-7.9-4-10c-2.7-2.1-6.9-3.2-12.7-3.2h-18.6V213.1z"/>
	<path d="M853.3,254.8l-2.1,15.1c-3.1,1.7-6.7,2.5-10.8,2.5c-11.4,0-18.3-4.1-20.5-12.2c-4.8,8.2-14.2,12.2-28.3,12.2
		c-7.9,0-14-1.7-18.3-5.1c-4.2-3.4-6.4-8.3-6.4-14.8c0-6.8,2.4-12.3,7.2-16.5c4.8-4.2,12.7-7.4,23.8-9.6l18-3.5v-2.9
		c0-3.6-1-6.5-3-8.6c-2-2.1-4.8-3.2-8.3-3.2c-4,0-7.3,1-9.9,2.9c-2.5,1.9-4.2,5-4.9,9.4l-21.9-6.4c1.4-7.7,5.2-13.7,11.4-18
		c6.3-4.3,14.7-6.4,25.3-6.4c12.4,0,21.8,2.5,28.3,7.6c6.5,5.1,9.7,12.7,9.7,22.9v28.9c0,4.1,1.9,6.2,5.7,6.2
		C850.4,255.4,852,255.2,853.3,254.8z M811.5,251.9c3-2.1,4.5-4.8,4.5-8.2v-6.8l-12.9,3c-3.4,0.8-5.8,1.9-7.2,3.1
		c-1.4,1.2-2.1,2.9-2.1,5.2c0,2.2,0.7,3.9,2.1,5.1c1.4,1.2,3.3,1.7,5.7,1.7C805.2,255,808.5,253.9,811.5,251.9z"/>
	<path d="M934.1,197.1c5,4.9,7.5,11.8,7.5,20.8v52.9h-27v-45.5c0-5.4-1-9.2-2.9-11.5c-2-2.3-4.7-3.4-8.3-3.4
		c-4.2,0-7.7,1.5-10.3,4.5c-2.7,3-4,7.7-4,13.9v42h-27v-79.5h24.2l0.8,15.3c2.5-5.6,6.1-9.8,10.8-12.6c4.7-2.8,10.1-4.2,16.4-4.2
		C922.5,189.8,929.2,192.2,934.1,197.1z"/>
	<path d="M1038.7,157.7v113.2h-24.3l-1-15.1c-2.3,5.2-5.8,9.3-10.3,12.2c-4.5,3-9.7,4.5-15.7,4.5c-10.3,0-18.3-3.6-24.1-10.8
		c-5.8-7.2-8.7-17.3-8.7-30.2c0-13.1,2.9-23.4,8.7-30.7c5.8-7.3,13.9-11,24.2-11c5.6,0,10.4,1.3,14.5,4c4,2.6,7.2,6.3,9.5,11v-47.1
		H1038.7z M1007.3,247.9c2.6-3.1,4.1-7.7,4.4-13.6v-6.4c-0.3-5.8-1.8-10.3-4.4-13.5c-2.6-3.2-6.1-4.8-10.4-4.8
		c-4.8,0-8.5,1.7-11,5.2c-2.6,3.5-3.9,8.9-3.9,16.2s1.3,12.7,3.9,16.2c2.6,3.5,6.3,5.2,11,5.2C1001.2,252.6,1004.7,251,1007.3,247.9
		z"/>
	<path d="M1124.5,200.7c7.4,7.3,11,17.4,11,30.4s-3.7,23.2-11,30.4c-7.4,7.3-17.7,10.9-30.9,10.9c-13.2,0-23.6-3.6-30.9-10.9
		c-7.4-7.3-11-17.4-11-30.4s3.7-23.2,11-30.4c7.4-7.3,17.7-10.9,30.9-10.9C1106.9,189.8,1117.2,193.4,1124.5,200.7z M1082.3,214.3
		c-2.4,3.5-3.7,9.1-3.7,16.8c0,7.7,1.2,13.4,3.7,16.8c2.4,3.5,6.2,5.2,11.3,5.2c5.1,0,8.8-1.7,11.3-5.2c2.4-3.5,3.7-9.1,3.7-16.8
		c0-7.7-1.2-13.4-3.7-16.8c-2.4-3.5-6.2-5.2-11.3-5.2C1088.5,209,1084.8,210.8,1082.3,214.3z"/>
	<path d="M1220.8,197.1c5,4.9,7.5,11.8,7.5,20.8v52.9h-27v-45.5c0-5.4-1-9.2-2.9-11.5c-2-2.3-4.7-3.4-8.3-3.4
		c-4.2,0-7.7,1.5-10.3,4.5c-2.7,3-4,7.7-4,13.9v42h-27v-79.5h24.2l0.8,15.3c2.5-5.6,6.1-9.8,10.8-12.6c4.7-2.8,10.1-4.2,16.4-4.2
		C1209.1,189.8,1215.8,192.2,1220.8,197.1z"/>
	<path d="M1316.9,197.1c5,4.9,7.5,11.8,7.5,20.8v52.9h-27v-45.5c0-5.4-1-9.2-2.9-11.5c-2-2.3-4.7-3.4-8.3-3.4
		c-4.2,0-7.7,1.5-10.3,4.5c-2.7,3-4,7.7-4,13.9v42h-27v-79.5h24.2l0.8,15.3c2.5-5.6,6.1-9.8,10.8-12.6c4.7-2.8,10.1-4.2,16.4-4.2
		C1305.3,189.8,1311.9,192.2,1316.9,197.1z"/>
	<path d="M1417.5,238.9h-54.2c0.8,5,2.7,8.6,5.5,11c2.8,2.3,6.5,3.5,11.2,3.5c3.9,0,7.1-0.7,9.6-2.2c2.5-1.5,4.2-3.7,5-6.5l21.9,7
		c-2.2,6.8-6.5,11.9-13,15.5c-6.4,3.6-14.3,5.3-23.6,5.3c-13.9,0-24.5-3.6-31.9-10.8c-7.4-7.2-11-17.4-11-30.5
		c0-13.1,3.6-23.3,10.8-30.5c7.2-7.2,17.4-10.8,30.7-10.8c12.8,0,22.7,3.5,29.5,10.6c6.8,7,10.3,16.9,10.3,29.6
		C1418.3,233.6,1418,236.6,1417.5,238.9z M1363.1,224.3h29.9c-1.3-10.4-6.1-15.6-14.6-15.6C1369.8,208.7,1364.7,213.9,1363.1,224.3z
		"/>
	<path d="M1510.1,191.4v79.5h-24.2l-0.8-14.8c-5,10.9-14.1,16.4-27.5,16.4c-8.5,0-15.1-2.2-19.9-6.8c-4.8-4.5-7.2-11.6-7.2-21.2
		v-53.1h27v46.3c0,5.2,0.9,8.8,2.7,11c1.8,2.1,4.6,3.2,8.3,3.2c4.5,0,8-1.5,10.6-4.5c2.6-3,4-7.6,4-13.7v-42.1H1510.1z"/>
	<path d="M1584.5,191.5l-2.9,22.9c-1.1-0.6-2.5-1.2-4.3-1.7c-1.8-0.5-3.7-0.7-5.7-0.7c-5.1,0-9.3,1.6-12.7,4.8
		c-3.4,3.2-5.1,7.9-5.1,13.9v40.1h-27v-79.5h23.8l1.1,17.2c1.9-6,4.9-10.7,9-13.9c4.1-3.2,9.1-4.8,15.2-4.8
		C1579.5,189.8,1582.4,190.4,1584.5,191.5z"/>
	<path d="M1588.1,258.5l14-15.3c4.6,7.5,12.4,11.3,23.5,11.3c3.7,0,6.6-0.5,8.7-1.5c2.1-1,3.2-2.4,3.2-4.1c0-1.5-1.1-2.8-3.3-3.9
		c-2.2-1.1-5.9-2.2-11.2-3.3c-11.9-2.3-20.3-5.5-25.4-9.5c-5-4-7.6-9.4-7.6-16.1c0-4.6,1.4-8.8,4.3-12.9c2.9-4,7.2-7.3,13-9.8
		c5.8-2.5,12.8-3.7,21.1-3.7c9.1,0,16.6,1.2,22.3,3.7c5.8,2.5,10.5,6.2,14.1,11.2l-14,13.7c-2.5-3.7-5.6-6.4-9.1-8.1
		c-3.5-1.7-7.7-2.5-12.6-2.5c-3.8,0-6.8,0.6-8.9,1.7c-2.1,1.2-3.2,2.6-3.2,4.3c0,1.6,1.1,2.9,3.3,4.1c2.2,1.1,6,2.2,11.4,3.3
		c11.7,2,20.1,5,25.2,9c5.1,4,7.7,9.4,7.7,16.3c0,7.7-3.2,14-9.7,18.8c-6.5,4.8-15.8,7.2-28.1,7.2
		C1608.6,272.4,1595.7,267.8,1588.1,258.5z"/>
	<path d="M718.8,307.3v80h-17.2l-0.7-10.7c-1.6,3.7-4.1,6.6-7.2,8.7c-3.2,2.1-6.9,3.1-11.1,3.1c-7.3,0-12.9-2.5-17-7.6
		c-4.1-5.1-6.1-12.2-6.1-21.3c0-9.3,2.1-16.5,6.2-21.7c4.1-5.2,9.8-7.8,17.1-7.8c4,0,7.4,0.9,10.2,2.8c2.8,1.9,5.1,4.5,6.7,7.8
		v-33.3H718.8z M696.6,371.1c1.8-2.2,2.9-5.4,3.1-9.6V357c-0.2-4.1-1.3-7.3-3.1-9.6c-1.8-2.2-4.3-3.4-7.4-3.4c-3.4,0-6,1.2-7.8,3.7
		c-1.8,2.5-2.8,6.3-2.8,11.5c0,5.2,0.9,9,2.8,11.5c1.8,2.5,4.4,3.7,7.8,3.7C692.3,374.4,694.7,373.3,696.6,371.1z"/>
	<path d="M748.3,313.8c2.1,2.7,3.1,6.1,3.1,10.3c0,4.9-1.3,9.4-4,13.4c-2.7,4-6.5,7.1-11.6,9.3l-8.4-6c7.4-2.8,12.1-6.8,14-12
		l-0.6-0.3c-0.8,0.8-1.9,1.2-3.4,1.2c-2.5,0-4.7-0.8-6.6-2.4c-1.9-1.6-2.9-4-2.9-7c0-3.4,1-6,3.1-7.8c2.1-1.8,4.8-2.8,8.1-2.8
		C743.2,309.8,746.3,311.1,748.3,313.8z"/>
	<path d="M779.6,306.5l-7.5-9.9l-7.5,9.9h-14.2l12.5-18.8h18.4l12.5,18.8H779.6z M781.8,387.3h-19.3v-74.2h19.3V387.3z"/>
	<path d="M817.3,367.9c0,2.5,0.4,4.3,1.1,5.4c0.7,1,2.1,1.6,4,1.6c1.8,0,3.7-0.3,5.7-1l-1.2,11.8c-1.3,0.8-3.1,1.5-5.3,2
		c-2.2,0.5-4.3,0.8-6.4,0.8c-6,0-10.3-1.4-13-4.2c-2.7-2.8-4-7.3-4-13.5v-63.4h19.1V367.9z"/>
	<path d="M888.3,364.7H850c0.6,3.5,1.9,6.1,3.9,7.8c2,1.6,4.6,2.5,7.9,2.5c2.8,0,5-0.5,6.8-1.6c1.8-1,2.9-2.6,3.5-4.6l15.5,4.9
		c-1.6,4.8-4.6,8.4-9.2,11c-4.5,2.5-10.1,3.8-16.7,3.8c-9.8,0-17.3-2.5-22.5-7.6c-5.2-5.1-7.8-12.3-7.8-21.6
		c0-9.3,2.5-16.5,7.6-21.6c5.1-5.1,12.3-7.6,21.7-7.6c9.1,0,16,2.5,20.8,7.5c4.8,5,7.2,12,7.2,21C888.9,361,888.7,363.1,888.3,364.7
		z M849.9,354.4H871c-0.9-7.3-4.3-11-10.3-11C854.6,343.4,851,347.1,849.9,354.4z"/>
	<path d="M988.7,307.3v80h-17.2l-0.7-10.7c-1.6,3.7-4.1,6.6-7.2,8.7c-3.2,2.1-6.9,3.1-11.1,3.1c-7.3,0-12.9-2.5-17-7.6
		c-4.1-5.1-6.1-12.2-6.1-21.3c0-9.3,2.1-16.5,6.2-21.7c4.1-5.2,9.8-7.8,17.1-7.8c4,0,7.4,0.9,10.2,2.8c2.8,1.9,5.1,4.5,6.7,7.8
		v-33.3H988.7z M966.5,371.1c1.8-2.2,2.9-5.4,3.1-9.6V357c-0.2-4.1-1.3-7.3-3.1-9.6c-1.8-2.2-4.3-3.4-7.4-3.4c-3.4,0-6,1.2-7.8,3.7
		c-1.8,2.5-2.8,6.3-2.8,11.5c0,5.2,0.9,9,2.8,11.5c1.8,2.5,4.4,3.7,7.8,3.7C962.2,374.4,964.6,373.3,966.5,371.1z"/>
	<path d="M1054.7,364.7h-38.3c0.6,3.5,1.9,6.1,3.9,7.8c2,1.6,4.6,2.5,7.9,2.5c2.8,0,5-0.5,6.8-1.6c1.8-1,2.9-2.6,3.5-4.6l15.5,4.9
		c-1.6,4.8-4.6,8.4-9.2,11c-4.5,2.5-10.1,3.8-16.7,3.8c-9.8,0-17.3-2.5-22.5-7.6c-5.2-5.1-7.8-12.3-7.8-21.6
		c0-9.3,2.5-16.5,7.6-21.6c5.1-5.1,12.3-7.6,21.7-7.6c9.1,0,16,2.5,20.8,7.5c4.8,5,7.2,12,7.2,21
		C1055.3,361,1055.1,363.1,1054.7,364.7z M1016.3,354.4h21.1c-0.9-7.3-4.3-11-10.3-11C1021,343.4,1017.4,347.1,1016.3,354.4z"/>
	<path d="M1118.7,328.1v15.7h30.6v14.9h-30.6v28.5h-19.3v-74.2h57.6v14.9H1118.7z"/>
	<path d="M1204.2,331.3l-2,16.2c-0.8-0.4-1.8-0.8-3-1.2c-1.3-0.3-2.6-0.5-4-0.5c-3.6,0-6.6,1.1-9,3.4c-2.4,2.3-3.6,5.6-3.6,9.8v28.3
		h-19.1v-56.2h16.9l0.8,12.1c1.3-4.3,3.5-7.5,6.3-9.8c2.9-2.3,6.5-3.4,10.7-3.4C1200.7,330,1202.7,330.4,1204.2,331.3z"/>
	<path d="M1268.6,376l-1.5,10.7c-2.2,1.2-4.7,1.8-7.6,1.8c-8.1,0-12.9-2.9-14.5-8.7c-3.4,5.8-10,8.7-20,8.7c-5.6,0-9.9-1.2-12.9-3.6
		c-3-2.4-4.5-5.9-4.5-10.4c0-4.8,1.7-8.7,5.1-11.6c3.4-3,9-5.2,16.8-6.8l12.7-2.5v-2c0-2.5-0.7-4.6-2.1-6.1
		c-1.4-1.5-3.4-2.2-5.8-2.2c-2.8,0-5.2,0.7-7,2c-1.8,1.3-3,3.6-3.5,6.6l-15.5-4.5c1-5.5,3.7-9.7,8.1-12.8c4.4-3,10.4-4.6,17.9-4.6
		c8.8,0,15.4,1.8,20,5.4c4.6,3.6,6.9,9,6.9,16.2V372c0,2.9,1.3,4.4,4,4.4C1266.5,376.4,1267.7,376.3,1268.6,376z M1239,373.9
		c2.1-1.5,3.1-3.4,3.1-5.8v-4.8l-9.1,2.1c-2.4,0.6-4.1,1.3-5.1,2.2c-1,0.9-1.5,2.1-1.5,3.7c0,1.6,0.5,2.8,1.5,3.6
		c1,0.8,2.3,1.2,4,1.2C1234.6,376.1,1236.9,375.4,1239,373.9z"/>
	<path d="M1325.7,335.2c3.5,3.4,5.3,8.4,5.3,14.7v37.4h-19.1v-32.1c0-3.8-0.7-6.5-2.1-8.1c-1.4-1.6-3.4-2.4-5.9-2.4
		c-3,0-5.4,1.1-7.3,3.2c-1.9,2.1-2.8,5.4-2.8,9.8v29.7h-19.1v-56.2h17.1l0.6,10.8c1.8-4,4.3-6.9,7.6-8.9c3.3-2,7.2-3,11.6-3
		C1317.5,330,1322.2,331.7,1325.7,335.2z"/>
	<path d="M1388.6,334.9c4.3,3.2,6.9,7.4,8,12.6l-17.8,5.8c-0.8-6.4-3.6-9.7-8.7-9.7c-7.4,0-11.1,5.3-11.1,15.8
		c0,10.3,3.7,15.4,11.1,15.4c5.3,0,8.4-3,9.3-9.1l17.2,5.5c-0.8,5.1-3.5,9.2-8.1,12.4c-4.6,3.2-10.7,4.8-18.3,4.8
		c-9.7,0-17.2-2.5-22.5-7.6c-5.2-5.1-7.9-12.3-7.9-21.6c0-9.2,2.6-16.4,7.8-21.5c5.2-5.1,12.5-7.7,21.7-7.7
		C1378,330,1384.3,331.6,1388.6,334.9z"/>
	<path d="M1458.9,364.7h-38.3c0.6,3.5,1.9,6.1,3.9,7.8c2,1.6,4.6,2.5,7.9,2.5c2.8,0,5-0.5,6.8-1.6c1.8-1,2.9-2.6,3.5-4.6l15.5,4.9
		c-1.6,4.8-4.6,8.4-9.2,11c-4.5,2.5-10.1,3.8-16.7,3.8c-9.8,0-17.3-2.5-22.5-7.6c-5.2-5.1-7.8-12.3-7.8-21.6
		c0-9.3,2.5-16.5,7.6-21.6c5.1-5.1,12.3-7.6,21.7-7.6c9.1,0,16,2.5,20.8,7.5c4.8,5,7.2,12,7.2,21
		C1459.5,361,1459.3,363.1,1458.9,364.7z M1420.5,354.4h21.1c-0.9-7.3-4.3-11-10.3-11C1425.2,343.4,1421.6,347.1,1420.5,354.4z"/>
</g>
</svg>
