<?xml version="1.0" encoding="utf-8"?>
<!-- Generator: Adobe Illustrator 26.2.1, SVG Export Plug-In . SVG Version: 6.00 Build 0)  -->
<svg version="1.1" id="Calque_1" xmlns="http://www.w3.org/2000/svg" xmlns:xlink="http://www.w3.org/1999/xlink" x="0px" y="0px"
	 viewBox="0 0 1077.2 1077.2" style="enable-background:new 0 0 1077.2 1077.2;" xml:space="preserve">
<g>
	<path d="M148.7,526.4c-0.3,0-0.7,0-1,0c-0.6-0.8-1.6-1.6-1.7-2.5c-0.2-1.3,0.8-2.4,2.1-2.2c0.8,0.1,2,1.2,2,2
		C150.2,524.5,149.2,525.5,148.7,526.4z M162.8,517.8c-1.6,0.1-3.1-1-3.1-2.4c0-1.7,1.1-2.4,2.6-2.5c1.6-0.1,2.6,0.6,2.9,2.3
		C165.1,516.7,164.4,517.7,162.8,517.8z M176.5,509.4c-1.4,0.4-2.6-0.9-2.6-2.4c0-1.4,0.7-2.2,2.1-2.3c1.5-0.1,2.8,1,3.2,2.8
		C178.2,508.2,177.5,509.2,176.5,509.4z"/>
	<path d="M939.9,410.8c-1.1-1.1-1.9-2.5-2.8-3.8c-1-1.4-1.8-2.9-2.7-4.4c-1.1-2-2.2-4-3.1-6c-1-2-2-2.5-4.1-1.6
		c-0.7,0.3-1.4,0.7-1.9,1.2c-6.1,5.2-13.3,8.5-20,12.6c-3.9,2.4-7.7,5.1-11.7,7.5c-4.3,2.6-8.7,5-13.1,7.5c-0.8,0.5-1.8,0.7-2.7,1.1
		c-2.2,0.9-4.3,1.2-6.5-0.2c-1-0.6-2.4-0.9-3.6-0.9c-4.9,0-9.9-0.6-14.6,1.9c-1.7,0.9-3.6,1.3-5.8,2c0-1.4,0-2.4,0-3.5
		c0.8-50.1-8.9-98.1-31-143.2c-42.1-85.6-109.1-142.3-200.5-169.7c-24.1-7.2-48.9-11-74.1-11.9c-0.8,0-1.6-0.2-2.4-0.3
		c-7.3,0-14.6,0-21.9,0c-3.5,0.2-7,0.5-10.5,0.7c-37.7,2.5-73.9,11.1-108.2,26.8c-80.5,36.9-136.9,96.7-169.1,179.3
		c-8.8,22.5-14.4,45.9-17.5,69.8c-3.2,23.9-3.6,47.8-1.5,71.9c0.3,3,0.7,5.9,0.9,8.8c0,0.5-0.2,1.3-0.6,1.6
		c-5.5,4.1-10.9,8.1-16.5,12c-6.1,4.3-10.4,9.6-11.4,17.2c-0.3,2.6-1.5,4.3-3.7,5.6c-9,5.2-17.9,10.5-26.9,15.8
		c-4.2,2.5-8.3,5.3-12.5,7.8c-2.9,1.8-6,3.3-9,5c-1.8,1-1.9,2.4-1,4c2.7,4.7,5.4,9.4,8.2,14c1.4,2.3,2.9,2.4,5.4,0.8
		c6.4-4.1,12.8-8.1,19.3-12c4.2-2.6,8.6-4.9,12.9-7.3c4.8-2.8,9.7-5.5,14.5-8.3c2.8-1.6,5.7-1.6,8.8-0.6c4,1.3,7.9,1.5,11.9,0.1
		c3.2-1.1,6.6-1.8,9.9-2.7c1.1-0.3,1.8,0.1,2.2,1.4c29,90.6,86.5,156.4,172.3,197.3c27.8,13.2,57.1,21.4,87.5,25.8
		c23.2,3.3,46.6,4.3,70,2.3c82.5-7,152.3-40.6,209.1-100.9c38.3-40.7,63.6-88.5,76.9-142.8c0.6-2.6,2.2-4.5,5.1-5.3
		c2.4-0.6,4.7-2,6.9-3.2c4.5-2.6,8.8-5.7,13.4-8.1c3.3-1.8,5.5-4.8,8.2-7.2c1.3-1.2,2.8-2.1,4.3-3.2c0.9-0.6,2.1-1,2.7-1.9
		c2.6-4,4.9-8.1,7.3-12.2c0.2-0.3,0.4-0.8,0.4-1.2c-0.2-5.1,3.9-6.6,7.3-8.6c3.7-2.2,7.4-4.5,11.1-6.7c5-2.9,10.1-5.6,15.2-8.5
		c6.4-3.7,12.7-7.4,19-11.1C941.7,413.9,941.7,412.6,939.9,410.8z M643.9,313.2c1.6-2.5,3.2-5,5-7.4c3-3.9,6.1-7.8,9.1-11.7
		c0.5-0.6,0.9-1.2,1.3-1.8c2.7-3.7,5.5-7.2,8-11c4.6-6.8,10.6-12.3,16.3-18.1c1.8-1.8,4-3.1,6.1-4.6c0.4-0.3,1-0.5,1.4-0.9
		c2.8-2.5,5.6-5.1,8.5-7.5c1.3-1.1,2.9-1.7,4.4-2.5c1-0.5,2.3-0.7,2.9-1.4c2.9-3.4,6.9-4.4,10.8-5.7c4.3-1.4,8.7-2.4,13.1-3.6
		c2.5-0.7,5-1.3,7.6-1.8c0.9-0.2,1.9-0.1,2.8,0.1c2.1,0.5,4,1.4,6.1,1.8c6,1.1,11.2,3.7,15.4,8.2c3.1,3.3,6.1,6.6,9.2,10
		c0.6,0.7,1.1,1.5,1.3,2.3c2.3,6.7,4.2,13.4,4.9,20.5c0.2,2,0,4-0.3,6c-0.8,4.5-1.9,9-2.9,13.5c-0.1,0.4-0.2,0.8-0.2,1.2
		c0.1,4-1.2,7.7-2.5,11.5c-3.6,10.5-7.6,20.8-12.4,30.8c-1.6,3.3-3.7,6.2-5.5,9.4c-0.7,1.2-1.5,2.3-2,3.6
		c-2.6,6.8-6.6,12.8-10.6,18.9c-3.6,5.4-7.6,10.6-11.2,16.1c-5,7.6-11.5,13.9-17.6,20.5c-0.8,0.9-1.7,1.7-2.3,2.7
		c-1.9,3.7-4.8,6.5-7.8,9.3c-5.2,5-10,10.3-15.1,15.3c-2.3,2.3-5,4.1-7.5,6.2c-1.9,1.5-3.9,3-5.8,4.6c-3.1,2.5-6.1,5.2-9.3,7.6
		c-4.4,3.2-9,6.4-13.7,9.3c-1.7,1-4.2,1.6-6,1.1c-4.9-1.2-9.7-3-14.5-4.8c-2.2-0.8-2.7-2.4-1.9-4.7c2.6-7.4,5.3-14.8,7.6-22.2
		c1.2-4.1,2.5-8,4.9-11.5c0.5-0.8,1.2-1.7,2-2.1c5.5-2.9,10.2-6.7,14.6-11.1c0.4-0.4,0.8-0.8,1.3-1c6.8-3.7,11-10.1,16.6-15
		c5.7-4.9,9.3-11.4,13.8-17.2c3.5-4.5,7.3-8.8,10.5-13.5c4.7-6.8,8.8-14,13.5-20.8c2.2-3.1,4.1-6.3,5.7-9.8
		c2.9-6.4,5.9-12.7,8.9-19.1c0.3-0.7,0.6-1.5,1.1-2.2c1.4-2,2.3-4,2.2-6.5c-0.1-0.9,0.4-1.9,0.6-2.8c0.5-2.8,1.2-5.7,1.3-8.5
		c0.2-4.6-2.6-7-7.2-6.6c-0.4,0-0.8,0.1-1,0.1c-5.6-0.3-9.7,2.2-13.2,6.1c-1.7,1.9-3.6,3.6-5.3,5.5c-4.1,4.5-8.3,8.8-12.1,13.5
		c-2.6,3.2-4.6,6.9-6.8,10.4c-2.8,4.6-5.5,9.4-8.4,14c-2.9,4.6-6.1,9-8.8,13.7c-2,3.4-3.4,7.1-5.3,10.5c-3.8,7.3-7.9,14.5-11.6,21.9
		c-3.8,7.5-7.2,15.2-10.8,22.8c-0.3,0.7-0.7,1.4-0.8,2.1c-0.5,4-2.8,7.2-4.5,10.6c-1,2.1-1.9,4.3-2.7,6.5
		c-2.6,7.1-5.2,14.2-7.7,21.4c-1.1,3.1-2,6.3-3.1,9.4c-0.9,2.8-2.9,3.6-5.5,2.4c-3.3-1.5-6.8-2.7-10-4.4c-5.5-3.1-11.2-6.1-15.3-11
		c-2.7-3.1-3.9-7-3.7-11.1c0.1-1.8,0.3-3.8,0.9-5.5c2.1-6.3,4.4-12.6,6.7-18.9c2-5.3,4.2-10.6,6.3-15.9c2-4.9,4-9.8,6-14.7
		c0.2-0.4,0.3-0.8,0.5-1.1c7.8-12.1,13-25.6,19.9-38.3C634.3,328,639.2,320.6,643.9,313.2z M499.6,291.4c-0.3-0.4-0.7-0.9-1.2-1.1
		c-3.9-2.2-6.7-5.4-9.2-9c-3.5-5.1-7.1-9.9-7.6-16.5c-0.4-5.4-1.6-10.7-1.1-16.2c0.7-7.2,2.7-13.8,6.5-19.8c1.3-2,3.2-3.5,4.8-5.4
		c6.6-7.8,15.1-12.5,24.7-15.5c4-1.2,8.3-1.5,12.1-2.1c8.7,1.2,17,2.2,24.1,7.1c1.2,0.9,2.6,1.6,3.9,2.3c7.3,3.9,12,10.4,16.1,17.3
		c2.2,3.7,3.4,7.8,3.8,12.1c0.1,1.1,0.4,2.2,0.7,3.2c0.9,2.6,1,5.2,0.4,7.9c-0.4,1.7-0.6,3.4-0.7,5.1c-0.7,8.5-4.3,15.8-9.7,22.2
		c-2.5,3-5.2,5.9-8.2,8.4c-2.6,2.2-5.7,3.9-8.8,5.4c-4.9,2.4-10,4.2-15.5,4.9c-7.7,1-15.1-0.6-22.3-3.1c-1.4-0.5-2.9-1-4.3-1.5
		C505,295.7,501.8,294.2,499.6,291.4z M506.3,306.7c-1.9,5-4,9.8-5.9,14.8c-1.8,4.6-5.7,7.1-9.9,9.1c-2.5,1.2-5.2,2-7.8,2.9
		c-5.3-1.6-10.6-2.5-15.2-4.7c-6.2-3-9.8-8.5-11.4-15.2c-0.1-0.3-0.2-0.7-0.3-1c-3.7-9.1,0.1-16.3,6.2-22.7c3.3-3.5,7.6-5.6,12-7.5
		c1.4-0.6,2.6-1.5,4-2.2c1.6-0.9,2.8-0.6,3.9,0.9c1.9,2.9,3.6,5.9,5.9,8.5c4.5,5.2,9.5,9.7,16.2,12.1
		C506.9,302.8,507.4,303.6,506.3,306.7z M508.2,321.1c1.2-3.9,2.3-7.9,3.4-11.9c0.7-2.5,1.6-3.3,4.2-2.9c3.4,0.5,6.7,1.5,10.1,1.8
		c3.7,0.3,7.4,0.4,11.1,0c3-0.3,6-1.5,9-2.3c2.4-0.7,3.7-0.2,4.6,2.2c2.2,6.1,4.4,12.2,6.4,18.3c0.4,1.2,0.4,2.6,0.2,3.9
		c-1.7,8.1-6.1,14.2-13.5,18c-3.7,1.9-7.6,2.3-11.6,2.4c-4.7,0.2-8.8-1.9-13-3.6c-5.5-2.3-8.3-6.4-10-11.6
		C507.5,330.7,506.7,325.9,508.2,321.1z M556,306.6c-1.5-2.8-0.9-4.5,1.9-6.1c6.2-3.5,11.8-7.8,15.7-14c1.3-2.2,2.8-4.2,4.3-6.3
		c1.1-1.7,2.7-2.3,4.5-1.4c5.8,2.8,12.3,4.1,17.6,8.1c3.3,2.5,5,5.9,6.5,9.5c0.8,1.8,0.7,3.9,0.9,5.8c-0.7,5.3-0.7,10.8-3.8,15.2
		c-3.6,5.2-8.4,9.1-14.7,10.7c-1.3,0.3-2.5,0.9-3.8,1c-2,0.3-4.1,0.6-6.1,0.3c-2.5-0.4-4.9-1.3-7.3-2.2c-3.9-1.3-6.2-4.6-8.4-7.7
		C560.4,315.5,558.3,310.9,556,306.6z M613.9,231.1c2.8,2.5,5.7,5,8.3,7.7c2.7,2.7,3.7,6.2,3.5,10.1c-0.1,1.2,0.1,2.5,0.2,3.7
		c0.1,0,0.2,0,0.3,0c-0.2,3.3-0.3,6.6-0.8,9.9c-0.6,3.9-3.3,6.6-5.8,9.3c-6,6.6-13.6,7.8-21.8,5.6c-4.2-1.1-8.2-2.8-12.2-4.5
		c-2.7-1.2-4.5-4.5-3.3-7.2c1.9-4.2,1.1-8.5,1.3-12.8c0.1-2.7,0.1-5.4-0.1-8.1c-0.1-1.5-0.5-3.2-1.1-4.6c-1.6-3.7-0.8-5.2,3-6
		c2.4-0.5,4.8-1.2,7.1-2.2c6.4-2.9,13-2.8,19.7-1.6C612.8,230.5,613.4,230.7,613.9,231.1z M563.4,185.1c2.4-2.9,5.5-4.8,9-6
		c2.2-0.7,4.3-1.5,6.5-1.9c1.4-0.3,3.1-0.4,4.5-0.1c7.2,1.6,13.4,4.9,18.1,10.8c3.3,4.2,4.2,8.9,4.5,14.3c-0.3,2.8-0.3,6.2-1.1,9.3
		c-1,3.6-2.5,7.2-6.3,9c-0.8,0.4-1.6,1.1-2.3,1.7c-0.4,0.3-0.6,0.8-1.1,1c-5.1,2.2-9.7,5.8-15.6,5.9c-0.9,0-2.2-0.9-2.7-1.8
		c-5-8.6-12-15.2-20.6-20.1c-2.7-1.5-3.2-2.7-2-5.5C556.7,195.9,559.2,190,563.4,185.1z M508.3,165.5c5.4-6,12.2-8.2,19.6-9.1
		c3.1-0.4,6.5,0.9,9.6,1.9c6.2,1.9,10.9,6.3,13.8,11.8c3.4,6.5,3.9,13.6,0.8,20.6c-1.3,3-2.5,6-3.6,9c-1.1,3-2.1,3.3-5.2,2.7
		c-5-1-10-2.9-15.2-2.2c-4.6,0.6-9.2,1.4-13.8,2.4c-2.8,0.6-3.7,0.4-4.9-2.2c-1.4-2.8-3.2-5.6-4-8.6c-1.2-4.4-1.6-8.9-2.3-12.9
		C503.7,173.6,504.8,169.4,508.3,165.5z M452.4,195.6c0-0.3,0.1-0.7,0.3-1c1.8-2.3,3.5-4.8,5.6-6.8c1.9-1.8,4.1-3.7,6.5-4.7
		c4.1-1.7,8.4-2.8,12.6-3.9c1-0.3,2.2,0.5,3.4,0.8c1,0.3,2,0.9,3.1,1.1c6,1,9.8,4.9,12.9,9.7c2.3,3.5,4.4,7.1,6.6,10.7
		c1.8,3.1,1.7,3.6-1.3,5.7c-5.6,3.8-11.4,7.2-15.6,12.7c-1.4,1.9-2.5,3.9-3.8,5.9c-0.7,1.1-1.4,2.2-2.3,3.2
		c-1.9,2.2-3.5,2.6-6.1,1.3c-4.9-2.4-9.6-5-14.5-7.4c-3.6-1.8-5.5-4.9-6.6-8.4c-1-3.1-1.3-6.3-1.9-9
		C451.7,201.9,452.1,198.7,452.4,195.6z M434.8,243.1c4.1-7.7,11.2-11.8,20.4-11.1c0-0.2,0-0.4,0-0.7c3.9,0.9,7.7,1.8,11.6,2.8
		c2.3,0.6,4.5,1.4,6.7,2.1c2.2,0.7,3.4,2.2,2.6,4.2c-1.8,4.5-0.9,9.1-1.1,13.7c-0.1,3.1-0.1,6.2,0.1,9.3c0.1,1.6,0.6,3.2,1.2,4.7
		c1.7,3.9,1.2,6-2.9,7.5c-4.8,1.8-9.7,3.8-14.7,4.6c-5.7,1-11.6,0.9-16.2-3.9c-2-2.1-4.6-3.7-6.1-6
		C430.6,261.6,430,252.1,434.8,243.1z M188.7,506.2c-2.1,1.9-4.1,3.9-6.4,5.4c-4.6,2.8-9.4,5.1-14,7.9c-7.2,4.3-14.3,8.8-21.4,13.2
		c-0.5,0.3-1.1,0.6-1.7,0.8c-3.5,1.3-6,1.9-7.4-3.4c-0.2-0.7-0.5-1.4-0.8-2.1c-1.2-2.9-1.1-4.1,1.6-6c2.8-2.1,5.8-4,8.8-5.8
		c4.6-2.7,9.4-5.1,14-7.9c4-2.3,7.8-5,11.7-7.4c2.6-1.6,5.3-3.2,8-4.7c0.7-0.4,1.8-0.3,2.5-0.1c1.8,0.6,5.7,6.6,5.7,8.9
		C189.2,505.3,189.1,505.9,188.7,506.2z M306.9,428.3c-1.5,2.1-3.2,4.1-4.6,6.3c-5.2,8.1-12,14.9-18.8,21.6c-3.9,3.8-7.2,8.1-11,12
		c-2,2.1-4.5,3.9-6.7,5.8c-0.3,0.3-0.7,0.4-1,0.7c-3.9,3.4-7.6,7-11.6,10.2c-3.3,2.7-6.7,5.2-10.2,7.5c-5,3.3-10.1,6.4-15.3,9.5
		c-4.4,2.6-17.1,5.8-23.8,5.9c-3.5-0.2-7.9-1.5-10.3-6.6c-1-2.1-2.5-4-3.8-5.9c-2.8-4.1-3-8.2-0.8-12.9c1.8-3.9,4.6-6.4,8.2-8.6
		c6.4-4.1,12.4-8.7,18.7-13c5.1-3.5,10.3-6.8,15.5-10.3c0.7-0.5,1.5-1,2.2-1.6c10.4-9.8,20.9-19.4,31.1-29.4
		c7-6.9,13.3-14.5,17.5-23.6c1.7-3.6,3.1-3.9,6.5-2c7.9,4.4,15.4,9.4,24.3,11.7c1.3,0.3,2.6,0.4,3.8,0.8c1.1,0.4,2.6,1,2.8,1.8
		c0.3,1-0.4,2.4-1,3.4c-0.6,1.1-1.5,2.1-2.2,3.2C313.1,419.4,310,423.8,306.9,428.3z M442.1,501.3c-3.7,2.6-7.4,5.4-11.3,7.6
		c-6.8,3.9-13.7,7.5-20.6,11c-1.7,0.8-3.7,1-5.5,1.5c-2.4,0.6-4.8,1.2-7.2,1.8c-7.2,1.7-14.6,3.7-22,2.9c-7.1-0.7-14-2.8-21.1-4
		c-5.5-0.9-9.5-4.4-14-7.2c-4.2-2.6-8-5.7-11.3-9.2c-1-1.1-1.9-2.3-2.8-3.6c-5-7.3-8.8-15.1-9.5-24c-0.6-7.9-0.8-15.8,1-23.7
		c0.9-4.2,1.7-8.5,2.7-12.7c0.3-1.4,1-2.7,1.5-4.1c1.7-3.9,3.3-7.9,5.1-11.7c1-2.2,2.3-4.4,3.7-6.4c3.7-5.3,7.4-10.6,11.5-15.7
		c4-4.9,8.3-9.5,12.8-14c3.8-3.8,7.9-7.3,11.8-11c1.2-1.1,1.7-2.7,0.5-4.1c-1.1-1.3-2.5-1.1-3.7,0c-6.6,6.3-13.1,12.6-19.5,19
		c-2.5,2.5-4.6,5.4-7,8.1c-1.6,1.9-3.8,2.4-6.2,2c-5.2-0.9-10.5-1.7-15.6-2.9c-3-0.7-5.9-2-8.6-3.4c-6.1-3.2-12.3-6.2-18.1-10
		c-3.7-2.5-6.8-6-9.8-9.4c-2.7-3.1-5.2-6.4-7.5-9.8c-4.2-6.3-5.5-13.7-7.7-20.8c-2.5-8.1-1.5-15.8,0.4-24
		c2.5-10.8,8.8-18.5,16.6-25.5c4.4-3.9,9.4-6.7,15.1-8.1c3.4-0.8,6.8-1.8,10.3-2.4c1.6-0.3,3.3-0.2,4.9,0.1c5.9,1,11.2,3.8,16.6,6.1
		c8.3,3.6,12.6,10.4,15.2,18.3c1.6,4.8,1.6,10,2.2,15.1c0.7,6,0,12-1,17.9c-0.5,3.1-0.6,6.2-1.1,9.2c-0.3,1.4-1,2.9-1.9,4
		c-1.4,1.9-3.5,2.3-5.8,1.5c-6.6-2.4-13.2-4.8-19.1-8.9c-5-3.4-9.1-7.3-9.2-14c0-2.2-0.8-4.5-1.3-6.7c-0.3-1.5-1.2-2.5-2.8-2.6
		c-1.8-0.1-3.8,0-4.5,1.9c-0.8,2.3-1.7,5-1.4,7.3c0.4,3.8,2.2,7.3,5.4,9.9c2,1.6,3.8,3.4,5.8,5c5.8,4.6,12.2,8,19.1,10.5
		c2.2,0.8,4.4,1.9,6.6,2.1c4.9,0.6,9.9,0.8,15.2,1.2c5.6-0.5,11.5-1.1,17.4-1.6c0.3,0,0.7-0.1,1-0.3c4.9-2.9,10.5-3.4,15.9-4.3
		c6.5-1,13-0.9,18.6,3.8c2.5,2.1,5.4,3.8,7.3,6.5c0.3,0.4,0.7,0.9,0.9,1.4c3.7,9.9,2.6,19.3-3.1,28.1c-1.8,2.7-4.6,4.8-6.9,7.1
		c-4.8,4.8-9.2,10.1-14.5,14.2c-6,4.6-10.1,10.6-14.7,16.4c-3.7,4.7-6.7,9.7-8.3,15.7c-1.5,5.5-1.4,10.9-1.1,16.3
		c0.1,1.9,1.1,3.9,2.3,5.4c3.9,5.1,8.8,8.7,15.5,9.4c0.7,0.1,1.4,0.2,2.1,0.1c4.2-0.8,8.5-1.3,12.5-2.6c4.2-1.4,8.2-3.6,12.2-5.5
		c0.8-0.4,1.6-0.9,2.4-1.2c5.2-1.9,9.7-5,13.7-8.9c2.8-2.7,6-5.1,9-7.5c1.4-1.1,3-0.6,3.5,1.3c0.5,1.8,0.6,3.7,0.8,5.5
		c0.5,4.1,0.6,8.3,1.6,12.2c1.7,6.7,4,13.3,6.1,19.9C443.8,498.7,443.6,500.2,442.1,501.3z M557.2,514.1c-9.7,2.9-19.1,7-29.3,7.7
		c-6.7,0.4-13.3,1.6-20,1.5c-8.6-0.2-17.2-1-25.7-2.4c-6.4-1.1-12.3-3.9-17.6-7.8c-2.6-1.9-5.5-3.2-7.5-6.1
		c-3.1-4.6-6.9-8.8-9.7-13.6c-1.9-3.3-2.6-7.3-3.8-11.1c-0.7-2.4-1.6-4.7-2-7.1c-0.6-4.5-1-9-1.3-12.7c-0.4-9,0-17.1,2.4-25
		c0.7-2.3,0.5-5,1.2-7.3c3.7-11.8,8.3-23.2,14.3-34.1c2-3.7,4-7.4,6.1-11c0.1-0.2,0.2-0.4,0.3-0.5c5.9-5.8,10-13.4,16.8-18.4
		c2.8-2.1,5.6-4.3,8.4-6.4c1.7-1.3,14-3.9,16.2-3.5c7.8,1.5,14.2,5.5,19.2,11.7c0.6,0.7,0.9,1.7,1.1,2.6c0.5,2.6,0.8,5.2,1.3,7.8
		c0.7,3.7,0.4,7.4-0.5,11.1c-0.6,2.3-0.3,4.9-1.1,7.1c-1.8,4.7-4,9.2-6.1,13.8c-0.9,2-1.9,3.9-3,5.9c-1.1,2-2.1,4-3.3,5.9
		c-4.1,6.2-8.2,12.3-12.4,18.5c-2,2.9-4,5.8-6,8.6c-0.4,0.6-1,1.3-1.6,1.6c-0.7,0.4-1.6,0.7-2.2,0.5c-0.6-0.3-1.1-1.2-1.2-1.9
		c-0.1-1.1,0.1-2.2,0.4-3.3c0.9-3.7,2.4-7.3,2.9-11.1c0.8-5.9,3.3-11.1,5.7-16.3c2.1-4.7,5.2-9,7.7-13.6c1.1-2,1.7-4.3,2.4-6.6
		c0.1-0.5-0.5-1.7-1-1.7c-1-0.2-2.5-0.2-3,0.4c-1.9,2.2-3.5,4.6-5,7c-1,1.6-1.7,3.3-2.5,5c-2.5,5.5-5.1,11-7.5,16.6
		c-1.1,2.6-1.8,5.3-2.5,8.1c-1.7,6.9-3,13.8-2.7,21c0.3,5.2,1.9,9.7,4.5,14c1.2,2,2.5,3.9,3.9,5.9c0.4,0.6,0.9,1.2,1.5,1.6
		c8.3,6,17.7,7.9,27.7,5.9c4.7-0.9,9.2-2.6,13.8-4.1c3.5-1.1,6.9-2.3,10.4-3.4c0.7-0.2,1.7,0,2.3,0.4c1.7,1.2,3.3,2.7,5,4
		c2.5,2.1,4.8,4.3,7.5,6.1c3.8,2.6,5.1,5.7,3.9,10.1c-1,4-2.1,8-2.8,12.1C562,510.8,560.4,513.1,557.2,514.1z M677.3,620.6
		c-1.1,13-6.7,24.2-14.2,34.5c-2.3,3.1-4.5,6.3-7.2,9c-2.6,2.5-5.7,4.5-8.8,6.4c-12,7.3-24.7,7.2-37.4,2.6
		c-5.1-1.8-9.5-5.2-13.4-9.1c-2.5-2.5-5.3-4.7-7.4-7.5c-2.8-3.8-4.9-8.1-7.2-12.2c-0.1-0.2-0.1-0.4-0.2-0.6
		c-4-5.1-4.7-11.7-7.6-17.4c-1.6-3.1-2.2-6.6-3.2-10c-0.7-2.4-1.4-4.9-1.9-7.4c-1.1-5.2-2.2-10.4-2.9-15.6
		c-0.8-5.8-1.2-11.6-1.7-17.5c-0.3-3.5-0.5-7-0.7-10.5c-0.1,0-0.2,0-0.4,0c0.5-8.3,0.9-16.7,1.4-25c0.5-8.3,0.5-16.6,1.7-24.8
		c1-7.1,3.2-14.1,5-21.1c0.4-1.6,1.5-1.7,2.9-1.1c8,3.5,15.9,6.9,23.9,10.3c2.1,0.9,4.5,1.4,6.8,1.9c3.5,0.8,3.9,2.2,3.2,5.7
		c-1.4,6.9-2.7,13.9-3.5,21c-0.7,6.7-0.9,13.4-1.1,20.2c-0.2,6.5,0,13,0.1,19.5c0,0.7,0.1,1.4,0.2,2.1c0.9,6.1,1.8,12.1,2.8,18.2
		c0.4,2.5,1.2,4.9,1.9,7.4c1.3,4.5,2.6,9,3.9,13.5c1.1,3.8,2.8,7.2,5.3,10.2c4.7,5.7,12.5,4.4,15.6-0.8c2.4-4,3.3-8.5,3.7-13
		c0.4-4.2-0.1-8.4,1.3-12.5c0.4-1,0.1-2.3-0.1-3.5c-0.4-3.5-0.8-6.9-1.3-10.4c-0.3-2.2-0.7-4.4-1.1-6.7c-0.5-3.1-1-6.1-1.7-9.1
		c-0.9-3.5-2-6.9-3-10.3c-0.6-1.8-1.2-3.7-1.7-5.5c-3.5-11.5-7.2-22.9-13.2-33.4c-1-1.7-1.7-3.6-2.3-5.5c-0.7-2.2,0.2-3.2,2.6-2.9
		c4.1,0.6,8.1,1.5,12.2,2.3c4.7,0.9,9.3,1.8,13.9,2.8c5,1.1,10,2.2,14.8,3.8c1.5,0.5,2.8,2.3,3.7,3.9c1.7,3.1,3.1,6.5,4.5,9.7
		c0.4,0.9,0.6,2,0.8,3c0.5,1.8,1,3.7,1.6,5.5c1.2,3.9,2.5,7.8,3.7,11.8c0.4,1.1,0.5,2.3,1,3.4c2.4,6.6,4.4,13.2,4.3,20.3
		c0,2.7,0.8,5.3,1,8c0.3,4.9,0.4,9.8,0.6,14.6c0,0.3-0.1,0.7,0,1C680.3,606.8,677.8,613.7,677.3,620.6z M881.1,449.6
		c-1.5,5.4-5.5,8.8-9.2,12.5c-2.1,2-4.1,4.1-6.3,6c-1.7,1.4-3.7,2.6-5.6,3.8c-3.5,2.1-6.9,4.3-10.5,6.2c-4.4,2.3-9,4.4-13.5,6.6
		c-1.6,0.8-3.2,1.7-4.8,2.3c-2.5,1-5,1.9-7.5,2.8c-0.7,0.3-1.5,0.4-2.2,0.7c-5.3,2.1-10.6,4.3-15.9,6.4c-5.7,2.2-11.4,4.5-17.2,6.5
		c-4,1.4-8.2,2.3-12.3,3.5c-7.7,2.1-15.5,3.3-23.4,4c-5.5,0.5-10.9,2.1-16.4,2.8c-3.9,0.5-8,0.4-12,0.6c-6.9,0.4-13.8,0.8-20.7,1.1
		c-3.4,0.1-6.9,0-10.3,0c0,0,0,0.1,0,0.1c-7.6-0.3-15.2-0.3-22.7-0.9c-5.3-0.4-10.6-1.7-15.9-2.5c-4.6-0.7-9.2-1.4-13.9-2.2
		c-3.4-0.6-6.8-1.2-10.2-1.9c-4.8-1-9.6-2.1-14.3-3.2c-0.9-0.2-1.8-0.7-2.7-1c-3.2-1.1-6.4-2.1-9.6-3.2c-1.3-0.4-2.7-0.7-3.9-1.3
		c-7.9-3.8-15.5-8.1-23.6-11.4c-10.3-4.2-17.8-11.8-25.2-19.6c-1.7-1.8-2.9-4.2-3.8-6.5c-1.7-4.4-3.1-8.8-4.6-13.3
		c-0.2-0.6-0.3-1.3-0.1-1.8c1.4-4.9,2.4-10,4.5-14.5c1.9-4.3,5.5-7.6,10-9.4c3.2-1.3,6.5-2.4,9.9-3c2.4-0.5,4.9-0.2,7.4,0
		c2,0.1,3.9,0.7,5.9,1c2.1,0.3,3.5,1.4,3.7,3.6c0.4,4,0.9,8.1,1.1,12.1c0.1,2.1,0.5,3.7,2,5.2c0.9,0.9,1.5,2.1,2.4,3.1
		c1.4,1.5,2.9,3.1,4.5,4.3c2.7,2,5.6,3.7,8.5,5.5c3.2,1.9,6.3,3.9,9.7,5.5c3,1.4,6.2,2.3,9.3,3.4c6.9,2.3,13.7,4.6,20.7,6.7
		c2.4,0.7,4.8,1.1,7.3,1.5c4.3,0.7,8.7,1.6,13,2c3.2,0.3,6.5,0,9.7,0.2c3,0.2,6,0.8,9,1.2c1.1,0.1,2.2,0.4,3.3,0.4
		c11.6,0,23.2,0,34.8-0.2c2.1,0,4.2-0.7,6.3-1c0.1,0,0.1-0.1,0.2-0.1c5.8-0.8,11.7-1.7,17.5-2.5c3-0.4,6-0.9,9-1.5
		c5.5-1.2,11.1-2.3,16.5-3.9c7.2-2.1,14.3-4.7,21.4-7.1c3.1-1.1,6.4-1.9,9.3-3.3c8.3-4,16.5-8.2,24.8-12.3
		c6.6-3.2,13.2-6.2,19.8-9.2c1.1-0.5,2.3-0.8,3.5-1.1c4.8-1.4,9.6-2.9,14.5-4.1c1.8-0.4,4-0.4,5.8,0.1c3.6,1.1,6.6,3.3,8.6,6.7
		c1.5,2.6,3.1,5.2,4.5,7.9C881.9,445.6,881.6,447.5,881.1,449.6z M931.3,414.7c-5.3,2.9-10.6,5.7-15.9,8.7c-2.1,1.2-4.1,2.8-6.2,4.1
		c-4.7,2.9-9.5,5.8-14.3,8.6c-2,1.2-4.1,2.2-6.2,3.2c-0.4,0.2-0.9,0.2-1.7,0.4c-0.7-0.4-1.8-0.7-2.4-1.4c-1.3-1.5-2.5-3.1-3.5-4.8
		c-1.1-2-0.3-4,1.7-5.3c1.8-1.2,3.5-2.6,5.3-3.9c0.4-0.3,0.9-0.9,1.3-0.9c4.3-0.7,7.3-4.1,11-5.9c2.2-1.1,4.1-2.8,6.1-4.2
		c1.7-1.1,3.5-2.2,5.3-3.2c4.4-2.4,8.8-4.8,13.2-7.3c1.5-0.8,2.8-0.7,3.6,0.6c1.6,2.3,3,4.8,4.3,7.3
		C933.7,412.3,933,413.8,931.3,414.7z"/>
	<path d="M162.4,512.9c-1.6,0.1-2.7,0.8-2.6,2.5c0,1.4,1.5,2.5,3.1,2.4c1.6-0.1,2.3-1.1,2.4-2.6C165,513.5,164,512.8,162.4,512.9z"
		/>
	<path d="M175.9,504.7c-1.4,0.1-2.1,0.9-2.1,2.3c0,1.5,1.2,2.8,2.6,2.4c1-0.3,1.8-1.2,2.6-1.9C178.7,505.6,177.4,504.6,175.9,504.7z
		"/>
	<path d="M148.1,521.7c-1.3-0.2-2.4,0.8-2.1,2.2c0.2,0.9,1.1,1.7,1.7,2.5c0.3,0,0.7,0,1,0c0.5-0.9,1.5-1.8,1.4-2.7
		C150.1,523,148.9,521.9,148.1,521.7z"/>
	<path d="M891.7,427.2c-2,0-3,0.9-3.1,2.6c0,1.8,1.1,3,2.9,3c1.9,0,3.3-1.1,3.3-2.7C894.9,428.4,893.6,427.2,891.7,427.2z"/>
	<path d="M904.5,419.3c-1.6,0-2.5,1.1-2.6,2.6c-0.1,1.6,1,2.3,2.5,2.4c1.8,0,2.3-1.2,2.4-2.6C906.8,420.1,906,419.3,904.5,419.3z"/>
	<path d="M916.9,414.1c-0.1,1.5,0.8,2.4,2.2,2.4c1.8,0,2.2-1.3,2.4-3.5c-0.5-0.3-1.2-1.3-2-1.4C918,411.4,917.1,412.5,916.9,414.1z"
		/>
</g>
<g>
	<path d="M146.5,863.4h-14.1v32.9h-23.1v-90.2h43.1c10.9,0,19.3,2.5,25.2,7.4c5.9,4.9,8.8,12,8.8,21.3c0,6.6-1.5,12-4.5,16.4
		c-3,4.4-7.4,7.6-13.1,9.7l23,35.4h-26L146.5,863.4z M132.4,846.7h16c5,0,8.7-0.9,10.9-2.7c2.3-1.8,3.4-4.7,3.4-8.7
		c0-3.9-1.1-6.8-3.4-8.6c-2.3-1.8-5.9-2.7-10.9-2.7h-16V846.7z"/>
	<path d="M269.9,882.5l-1.8,13c-2.6,1.5-5.7,2.2-9.3,2.2c-9.8,0-15.7-3.5-17.6-10.5c-4.1,7-12.2,10.5-24.3,10.5
		c-6.8,0-12.1-1.5-15.7-4.4c-3.6-2.9-5.5-7.2-5.5-12.7c0-5.8,2.1-10.5,6.2-14.1c4.1-3.6,11-6.4,20.4-8.3l15.4-3v-2.5
		c0-3.1-0.9-5.6-2.6-7.4c-1.7-1.8-4.1-2.7-7.1-2.7c-3.5,0-6.3,0.8-8.5,2.5c-2.2,1.6-3.6,4.3-4.2,8.1l-18.9-5.5
		c1.2-6.6,4.5-11.8,9.8-15.5c5.4-3.7,12.6-5.5,21.7-5.5c10.7,0,18.8,2.2,24.3,6.6c5.6,4.4,8.3,10.9,8.3,19.7v24.9
		c0,3.6,1.6,5.3,4.9,5.3C267.4,883.1,268.8,882.9,269.9,882.5z M233.9,880c2.5-1.8,3.8-4.1,3.8-7v-5.9l-11.1,2.6
		c-2.9,0.7-5,1.6-6.2,2.7c-1.2,1-1.8,2.5-1.8,4.4c0,1.9,0.6,3.4,1.8,4.4c1.2,1,2.8,1.5,4.9,1.5C228.5,882.7,231.4,881.8,233.9,880z"
		/>
	<path d="M339.4,832.9c4.3,4.2,6.4,10.2,6.4,17.9v45.5h-23.2v-39.1c0-4.6-0.8-7.9-2.5-9.9c-1.7-2-4.1-2.9-7.2-2.9
		c-3.6,0-6.6,1.3-8.9,3.9c-2.3,2.6-3.4,6.6-3.4,12v36.1h-23.2V828h20.8l0.7,13.1c2.2-4.8,5.3-8.4,9.3-10.9c4-2.4,8.7-3.6,14.1-3.6
		C329.3,826.6,335.1,828.7,339.4,832.9z"/>
	<path d="M429.3,799v97.3h-20.9l-0.8-13c-2,4.5-4.9,8-8.8,10.5c-3.9,2.5-8.4,3.8-13.5,3.8c-8.8,0-15.7-3.1-20.7-9.3
		c-5-6.2-7.4-14.8-7.4-26c0-11.3,2.5-20.1,7.5-26.4c5-6.3,11.9-9.4,20.8-9.4c4.8,0,9,1.1,12.4,3.4c3.5,2.3,6.2,5.4,8.2,9.4V799
		H429.3z M402.3,876.6c2.2-2.7,3.5-6.6,3.8-11.7v-5.5c-0.3-5-1.5-8.9-3.8-11.6c-2.2-2.7-5.2-4.1-9-4.1c-4.1,0-7.3,1.5-9.5,4.5
		c-2.2,3-3.3,7.7-3.3,13.9c0,6.3,1.1,10.9,3.3,13.9c2.2,3,5.4,4.5,9.5,4.5C397,880.6,400,879.3,402.3,876.6z"/>
	<path d="M503.1,836c6.3,6.2,9.5,15,9.5,26.2c0,11.2-3.2,19.9-9.5,26.2c-6.3,6.2-15.2,9.4-26.6,9.4c-11.4,0-20.2-3.1-26.6-9.4
		c-6.3-6.2-9.5-15-9.5-26.2c0-11.2,3.2-19.9,9.5-26.2c6.3-6.2,15.2-9.4,26.6-9.4C487.9,826.6,496.7,829.8,503.1,836z M466.8,847.7
		c-2.1,3-3.1,7.8-3.1,14.5c0,6.7,1,11.5,3.1,14.5c2.1,3,5.3,4.5,9.7,4.5c4.4,0,7.6-1.5,9.7-4.5c2.1-3,3.1-7.8,3.1-14.5
		c0-6.6-1-11.5-3.1-14.5c-2.1-3-5.3-4.5-9.7-4.5C472.1,843.2,468.9,844.7,466.8,847.7z"/>
	<path d="M585.8,832.9c4.3,4.2,6.4,10.2,6.4,17.9v45.5H569v-39.1c0-4.6-0.8-7.9-2.5-9.9c-1.7-2-4.1-2.9-7.2-2.9
		c-3.6,0-6.6,1.3-8.9,3.9c-2.3,2.6-3.4,6.6-3.4,12v36.1h-23.2V828h20.8l0.7,13.1c2.2-4.8,5.3-8.4,9.3-10.9c4-2.4,8.7-3.6,14.1-3.6
		C575.8,826.6,581.6,828.7,585.8,832.9z"/>
	<path d="M668.5,832.9c4.3,4.2,6.4,10.2,6.4,17.9v45.5h-23.2v-39.1c0-4.6-0.8-7.9-2.5-9.9c-1.7-2-4.1-2.9-7.2-2.9
		c-3.6,0-6.6,1.3-8.9,3.9c-2.3,2.6-3.4,6.6-3.4,12v36.1h-23.2V828h20.8l0.7,13.1c2.2-4.8,5.3-8.4,9.3-10.9c4-2.4,8.7-3.6,14.1-3.6
		C658.4,826.6,664.2,828.7,668.5,832.9z"/>
	<path d="M754.9,868.9h-46.6c0.7,4.3,2.3,7.4,4.7,9.4c2.4,2,5.6,3,9.6,3c3.4,0,6.1-0.6,8.3-1.9c2.1-1.3,3.6-3.1,4.3-5.6l18.9,6
		c-1.9,5.8-5.6,10.3-11.1,13.3c-5.5,3.1-12.3,4.6-20.3,4.6c-11.9,0-21.1-3.1-27.4-9.3c-6.3-6.2-9.5-14.9-9.5-26.2
		c0-11.3,3.1-20,9.3-26.2c6.2-6.2,15-9.3,26.4-9.3c11,0,19.5,3,25.4,9.1c5.9,6.1,8.8,14.6,8.8,25.5
		C755.6,864.3,755.4,866.9,754.9,868.9z M708.2,856.3h25.7c-1.1-8.9-5.3-13.4-12.6-13.4C713.9,842.9,709.6,847.4,708.2,856.3z"/>
	<path d="M834.5,828v68.3h-20.8l-0.7-12.7c-4.3,9.4-12.2,14.1-23.6,14.1c-7.3,0-13-1.9-17.2-5.8c-4.1-3.9-6.2-10-6.2-18.2V828h23.2
		v39.8c0,4.5,0.8,7.6,2.3,9.4c1.5,1.8,3.9,2.7,7.1,2.7c3.8,0,6.9-1.3,9.2-3.9c2.3-2.6,3.4-6.5,3.4-11.8V828H834.5z"/>
	<path d="M898.5,828.1l-2.5,19.7c-0.9-0.5-2.1-1-3.7-1.4c-1.6-0.4-3.2-0.6-4.9-0.6c-4.4,0-8,1.4-10.9,4.2c-2.9,2.8-4.4,6.8-4.4,12
		v34.4h-23.2V828h20.5l1,14.8c1.6-5.2,4.2-9.2,7.7-12c3.5-2.8,7.9-4.2,13.1-4.2C894.2,826.6,896.7,827.1,898.5,828.1z"/>
	<path d="M901.6,885.7l12-13.1c3.9,6.5,10.7,9.7,20.2,9.7c3.2,0,5.7-0.4,7.5-1.3c1.8-0.9,2.7-2,2.7-3.5c0-1.3-0.9-2.4-2.8-3.3
		c-1.9-1-5.1-1.9-9.6-2.8c-10.2-2-17.5-4.7-21.8-8.2c-4.3-3.5-6.5-8.1-6.5-13.8c0-3.9,1.2-7.6,3.7-11.1c2.5-3.5,6.2-6.3,11.1-8.4
		c5-2.1,11-3.2,18.1-3.2c7.8,0,14.2,1.1,19.2,3.2c5,2.1,9,5.4,12.1,9.6l-12,11.8c-2.2-3.2-4.8-5.5-7.8-7c-3-1.5-6.6-2.2-10.8-2.2
		c-3.3,0-5.8,0.5-7.7,1.5c-1.8,1-2.7,2.2-2.7,3.7c0,1.4,0.9,2.5,2.8,3.5c1.9,1,5.1,1.9,9.8,2.8c10,1.7,17.2,4.3,21.7,7.7
		c4.4,3.4,6.6,8.1,6.6,14c0,6.7-2.8,12.1-8.3,16.2c-5.6,4.1-13.6,6.2-24.2,6.2C919.3,897.7,908.2,893.7,901.6,885.7z"/>
	<path d="M242.6,927.7v68.8h-14.8l-0.6-9.2c-1.4,3.2-3.5,5.6-6.2,7.4c-2.7,1.8-5.9,2.7-9.5,2.7c-6.2,0-11.1-2.2-14.6-6.6
		c-3.5-4.4-5.3-10.5-5.3-18.4c0-8,1.8-14.2,5.3-18.6c3.5-4.4,8.4-6.7,14.7-6.7c3.4,0,6.3,0.8,8.8,2.4c2.4,1.6,4.4,3.8,5.8,6.7v-28.6
		H242.6z M223.5,982.5c1.6-1.9,2.5-4.7,2.7-8.3v-3.9c-0.2-3.5-1.1-6.3-2.7-8.2c-1.6-1.9-3.7-2.9-6.3-2.9c-2.9,0-5.1,1.1-6.7,3.2
		c-1.6,2.1-2.4,5.4-2.4,9.9s0.8,7.7,2.4,9.9c1.6,2.1,3.8,3.2,6.7,3.2C219.8,985.4,221.9,984.4,223.5,982.5z"/>
	<path d="M268,933.3c1.8,2.3,2.7,5.3,2.7,8.9c0,4.3-1.1,8.1-3.4,11.5c-2.3,3.4-5.6,6.1-10,8l-7.2-5.1c6.4-2.4,10.4-5.8,12.1-10.3
		l-0.5-0.3c-0.6,0.7-1.6,1.1-2.9,1.1c-2.1,0-4-0.7-5.7-2.1c-1.6-1.4-2.5-3.4-2.5-6c0-2.9,0.9-5.1,2.7-6.7c1.8-1.6,4.1-2.4,7-2.4
		C263.6,929.8,266.2,931,268,933.3z"/>
	<path d="M294.9,927l-6.5-8.5L282,927h-12.2l10.7-16.1h15.8l10.7,16.1H294.9z M296.8,996.5h-16.6v-63.8h16.6V996.5z"/>
	<path d="M327.3,979.8c0,2.2,0.3,3.7,1,4.6c0.6,0.9,1.8,1.4,3.5,1.4c1.5,0,3.2-0.3,4.9-0.9l-1.1,10.1c-1.2,0.7-2.7,1.3-4.5,1.7
		c-1.9,0.4-3.7,0.7-5.5,0.7c-5.2,0-8.9-1.2-11.2-3.6c-2.3-2.4-3.5-6.3-3.5-11.6v-54.5h16.4V979.8z"/>
	<path d="M388.4,977.1h-32.9c0.5,3,1.6,5.3,3.3,6.7c1.7,1.4,4,2.1,6.8,2.1c2.4,0,4.3-0.5,5.8-1.4c1.5-0.9,2.5-2.2,3-4l13.3,4.3
		c-1.4,4.1-4,7.3-7.9,9.4c-3.9,2.2-8.7,3.2-14.3,3.2c-8.4,0-14.9-2.2-19.4-6.6c-4.5-4.4-6.7-10.6-6.7-18.5c0-8,2.2-14.2,6.6-18.5
		c4.4-4.4,10.6-6.6,18.6-6.6c7.8,0,13.8,2.1,17.9,6.4c4.2,4.3,6.2,10.3,6.2,18C388.9,973.8,388.7,975.7,388.4,977.1z M355.3,968.2
		h18.2c-0.8-6.3-3.7-9.5-8.9-9.5C359.4,958.7,356.3,961.9,355.3,968.2z"/>
	<path d="M474.6,927.7v68.8h-14.8l-0.6-9.2c-1.4,3.2-3.5,5.6-6.2,7.4c-2.7,1.8-5.9,2.7-9.5,2.7c-6.2,0-11.1-2.2-14.6-6.6
		c-3.5-4.4-5.3-10.5-5.3-18.4c0-8,1.8-14.2,5.3-18.6c3.5-4.4,8.4-6.7,14.7-6.7c3.4,0,6.3,0.8,8.8,2.4c2.4,1.6,4.4,3.8,5.8,6.7v-28.6
		H474.6z M455.6,982.5c1.6-1.9,2.5-4.7,2.7-8.3v-3.9c-0.2-3.5-1.1-6.3-2.7-8.2c-1.6-1.9-3.7-2.9-6.3-2.9c-2.9,0-5.1,1.1-6.7,3.2
		c-1.6,2.1-2.4,5.4-2.4,9.9s0.8,7.7,2.4,9.9c1.6,2.1,3.8,3.2,6.7,3.2C451.9,985.4,454,984.4,455.6,982.5z"/>
	<path d="M531.4,977.1h-32.9c0.5,3,1.6,5.3,3.3,6.7c1.7,1.4,4,2.1,6.8,2.1c2.4,0,4.3-0.5,5.8-1.4c1.5-0.9,2.5-2.2,3-4l13.3,4.3
		c-1.4,4.1-4,7.3-7.9,9.4c-3.9,2.2-8.7,3.2-14.3,3.2c-8.4,0-14.9-2.2-19.4-6.6c-4.5-4.4-6.7-10.6-6.7-18.5c0-8,2.2-14.2,6.6-18.5
		c4.4-4.4,10.6-6.6,18.6-6.6c7.8,0,13.8,2.1,17.9,6.4c4.2,4.3,6.2,10.3,6.2,18C531.9,973.8,531.7,975.7,531.4,977.1z M498.4,968.2
		h18.2c-0.8-6.3-3.7-9.5-8.9-9.5C502.4,958.7,499.4,961.9,498.4,968.2z"/>
	<path d="M586.5,945.6v13.5h26.3v12.8h-26.3v24.5h-16.6v-63.8h49.6v12.8H586.5z"/>
	<path d="M660,948.3l-1.7,13.9c-0.6-0.4-1.5-0.7-2.6-1c-1.1-0.3-2.3-0.4-3.5-0.4c-3.1,0-5.7,1-7.7,2.9c-2.1,2-3.1,4.8-3.1,8.5v24.3
		h-16.4v-48.3h14.5l0.7,10.4c1.2-3.7,3-6.5,5.5-8.5c2.5-2,5.6-2.9,9.2-2.9C656.9,947.2,658.7,947.6,660,948.3z"/>
	<path d="M715.3,986.7l-1.3,9.2c-1.9,1-4.1,1.5-6.6,1.5c-7,0-11.1-2.5-12.5-7.4c-2.9,5-8.6,7.4-17.2,7.4c-4.8,0-8.5-1-11.1-3.1
		c-2.6-2.1-3.9-5.1-3.9-9c0-4.1,1.5-7.5,4.4-10c2.9-2.5,7.7-4.5,14.4-5.8l10.9-2.1v-1.7c0-2.2-0.6-3.9-1.8-5.2
		c-1.2-1.3-2.9-1.9-5-1.9c-2.4,0-4.4,0.6-6,1.7s-2.5,3.1-3,5.7l-13.3-3.9c0.8-4.7,3.2-8.4,7-11c3.8-2.6,8.9-3.9,15.4-3.9
		c7.5,0,13.3,1.5,17.2,4.6c3.9,3.1,5.9,7.7,5.9,13.9v17.6c0,2.5,1.2,3.8,3.5,3.8C713.5,987.1,714.5,987,715.3,986.7z M689.9,984.9
		c1.8-1.3,2.7-2.9,2.7-5v-4.2l-7.8,1.8c-2.1,0.5-3.5,1.1-4.4,1.9c-0.9,0.7-1.3,1.8-1.3,3.1s0.4,2.4,1.3,3.1c0.8,0.7,2,1.1,3.5,1.1
		C686.1,986.8,688.1,986.2,689.9,984.9z"/>
	<path d="M764.4,951.7c3,3,4.5,7.2,4.5,12.7v32.2h-16.4v-27.6c0-3.3-0.6-5.6-1.8-7c-1.2-1.4-2.9-2.1-5.1-2.1c-2.6,0-4.7,0.9-6.3,2.8
		c-1.6,1.8-2.4,4.7-2.4,8.5v25.5h-16.4v-48.3h14.7l0.5,9.3c1.5-3.4,3.7-6,6.6-7.7c2.8-1.7,6.2-2.6,10-2.6
		C757.4,947.2,761.4,948.7,764.4,951.7z"/>
	<path d="M818.5,951.4c3.7,2.8,6,6.4,6.9,10.8l-15.3,5c-0.6-5.5-3.1-8.3-7.4-8.3c-6.4,0-9.6,4.5-9.6,13.6c0,8.8,3.2,13.2,9.6,13.2
		c4.6,0,7.2-2.6,8-7.8l14.8,4.7c-0.7,4.4-3,7.9-7,10.7c-4,2.7-9.2,4.1-15.7,4.1c-8.4,0-14.8-2.2-19.3-6.6
		c-4.5-4.4-6.8-10.6-6.8-18.5c0-7.9,2.2-14.1,6.7-18.5c4.5-4.4,10.7-6.6,18.7-6.6C809.4,947.2,814.8,948.6,818.5,951.4z"/>
	<path d="M879,977.1h-32.9c0.5,3,1.6,5.3,3.3,6.7c1.7,1.4,4,2.1,6.8,2.1c2.4,0,4.3-0.5,5.8-1.4c1.5-0.9,2.5-2.2,3-4l13.3,4.3
		c-1.4,4.1-4,7.3-7.9,9.4c-3.9,2.2-8.7,3.2-14.3,3.2c-8.4,0-14.9-2.2-19.4-6.6c-4.5-4.4-6.7-10.6-6.7-18.5c0-8,2.2-14.2,6.6-18.5
		c4.4-4.4,10.6-6.6,18.6-6.6c7.8,0,13.8,2.1,17.9,6.4c4.2,4.3,6.2,10.3,6.2,18C879.5,973.8,879.3,975.7,879,977.1z M846,968.2h18.2
		c-0.8-6.3-3.7-9.5-8.9-9.5C850,958.7,846.9,961.9,846,968.2z"/>
</g>
</svg>
