<svg width="201" height="51" viewBox="0 0 201 51" fill="none" xmlns="http://www.w3.org/2000/svg">
<path d="M66.2881 24.9365C65.7744 25.2387 65.2607 25.5288 64.7344 25.8189C64.321 26.0486 63.9075 26.254 63.494 26.4837C63.1808 26.6529 62.8801 26.8463 62.5794 27.0156C62.2912 27.1727 61.9654 27.2936 61.978 27.6925C61.978 27.7287 61.9654 27.765 61.9529 27.7892C61.7524 28.1155 61.5645 28.4419 61.3515 28.7562C61.3139 28.8166 61.2137 28.8529 61.1385 28.9012C61.0132 28.9858 60.9004 29.0583 60.7877 29.155C60.5747 29.3484 60.3992 29.5781 60.1236 29.7232C59.7477 29.9166 59.3844 30.1583 59.021 30.3638C58.8456 30.4605 58.6577 30.5693 58.4572 30.6176C58.2066 30.6781 58.0813 30.8231 58.0312 31.0286C56.9411 35.3076 54.8738 39.0789 51.7414 42.2941C47.093 47.0445 41.3796 49.6917 34.6387 50.2477C32.7217 50.4049 30.8173 50.3323 28.9128 50.0664C26.432 49.728 24.0263 49.0752 21.7585 48.0357C14.7295 44.8083 10.0309 39.6107 7.66286 32.467C7.63781 32.3703 7.57516 32.3341 7.48745 32.3582C7.2118 32.4187 6.93616 32.4791 6.67304 32.5637C6.34727 32.6846 6.02151 32.6725 5.69574 32.5637C5.45768 32.4912 5.20709 32.4791 4.98157 32.6121C4.58062 32.8296 4.19221 33.0472 3.79127 33.2648C3.44044 33.4582 3.08962 33.6395 2.7388 33.845C2.20003 34.1472 1.68632 34.4614 1.16009 34.7878C0.959617 34.9208 0.834323 34.9087 0.721558 34.7274C0.483499 34.3647 0.270498 34.0021 0.0449686 33.6274C-0.030208 33.5065 -0.0176786 33.3857 0.132675 33.3131C0.383263 33.1923 0.633852 33.0593 0.871911 32.9263C1.21021 32.7208 1.5485 32.5033 1.8868 32.3099C2.6135 31.8868 3.34021 31.4758 4.07945 31.0649C4.25486 30.9682 4.35509 30.8352 4.38015 30.6297C4.45533 30.0374 4.80615 29.6144 5.30733 29.2759C5.75839 28.9737 6.19692 28.6474 6.64798 28.3331C6.68557 28.3089 6.6981 28.2485 6.6981 28.2001C6.67304 27.9584 6.64798 27.7287 6.62292 27.4991C6.44751 25.6013 6.4851 23.7157 6.74822 21.83C7.01133 19.9323 7.47492 18.095 8.1891 16.3181C10.8078 9.80296 15.4186 5.08884 22.0091 2.17575C24.8157 0.930737 27.7726 0.253837 30.8548 0.0604375C31.143 0.0362625 31.4312 0.024175 31.7194 0H33.5111C33.5737 0.0120875 33.6489 0.024175 33.7116 0.024175C35.7664 0.0967 37.7961 0.3868 39.7758 0.967C47.2433 3.13066 52.7312 7.59095 56.1768 14.3479C57.9811 17.9016 58.7704 21.6971 58.7078 25.6497V25.9277C58.8832 25.8672 59.0461 25.8431 59.1839 25.7705C59.5598 25.5771 59.9732 25.6255 60.3742 25.6255C60.4744 25.6255 60.5747 25.6497 60.6624 25.698C60.8378 25.8068 61.0132 25.7826 61.1886 25.7101C61.2512 25.6859 61.339 25.6618 61.4016 25.6255C61.765 25.4321 62.1283 25.2387 62.4791 25.0332C62.8049 24.8398 63.1056 24.6343 63.4314 24.4409C63.9827 24.1146 64.5715 23.8607 65.0727 23.4497C65.1228 23.4014 65.1855 23.3772 65.2356 23.353C65.411 23.2926 65.4987 23.3289 65.5739 23.486C65.6491 23.6431 65.7368 23.8003 65.8245 23.9574C65.8997 24.0783 65.9748 24.1992 66.05 24.308C66.1127 24.4167 66.1878 24.5255 66.2756 24.6101C66.4259 24.7552 66.4259 24.8519 66.2881 24.9365Z" fill="white"/>
<path d="M1.57375 33.7237H1.49857C1.44846 33.6633 1.37328 33.6028 1.36075 33.5303C1.33569 33.4216 1.4234 33.3491 1.53616 33.3611C1.59881 33.3732 1.69905 33.4578 1.69905 33.5182C1.68652 33.5787 1.61134 33.6512 1.57375 33.7237ZM2.72646 33.0469C2.58863 33.059 2.47587 32.9744 2.47587 32.8657C2.47587 32.7327 2.56358 32.6723 2.68887 32.6602C2.81416 32.6481 2.90187 32.7085 2.92693 32.8415C2.9144 32.9623 2.85175 33.0469 2.72646 33.0469ZM3.84158 32.3943C3.72881 32.4306 3.62858 32.3218 3.62858 32.201C3.62858 32.0922 3.6787 32.0318 3.79146 32.0197C3.91675 32.0076 4.01699 32.0922 4.05458 32.2493C3.9794 32.2856 3.91675 32.3702 3.84158 32.3943Z" fill="#1DB100"/>
<path d="M66.2756 24.6101C66.1878 24.5255 66.1127 24.4167 66.05 24.308C65.9748 24.1992 65.8997 24.0783 65.8245 23.9574C65.7368 23.8003 65.6491 23.6431 65.5739 23.486C65.4987 23.3289 65.411 23.2926 65.2356 23.353C65.1855 23.3772 65.1228 23.4014 65.0727 23.4497C64.5715 23.8607 63.9827 24.1146 63.4314 24.4409C63.1056 24.6343 62.8049 24.8398 62.4791 25.0332C62.1283 25.2387 61.765 25.4321 61.4016 25.6255C61.339 25.6618 61.2512 25.6859 61.1886 25.7101C61.0132 25.7826 60.8378 25.8068 60.6624 25.698C60.5747 25.6497 60.4744 25.6255 60.3742 25.6255C59.9732 25.6255 59.5598 25.5771 59.1839 25.7705C59.0461 25.8431 58.8832 25.8672 58.7078 25.9277V25.6497C58.7704 21.6971 57.9811 17.9016 56.1768 14.3479C52.7312 7.59095 47.2433 3.13066 39.7758 0.967C37.7961 0.3868 35.7664 0.0967 33.7116 0.024175C33.6489 0.024175 33.5737 0.0120875 33.5111 0H31.7194C31.4312 0.024175 31.143 0.0362625 30.8548 0.0604375C27.7726 0.253837 24.8157 0.930737 22.0091 2.17575C15.4186 5.08884 10.8078 9.80296 8.1891 16.3181C7.47492 18.095 7.01133 19.9323 6.74822 21.83C6.4851 23.7157 6.44751 25.6013 6.62292 27.4991C6.64798 27.7287 6.67304 27.9584 6.6981 28.2001C6.6981 28.2485 6.68557 28.3089 6.64798 28.3331C6.19692 28.6474 5.75839 28.9737 5.30733 29.2759C4.80615 29.6144 4.45533 30.0374 4.38015 30.6297C4.35509 30.8352 4.25486 30.9682 4.07945 31.0649C3.34021 31.4758 2.6135 31.8868 1.8868 32.3099C1.5485 32.5033 1.21021 32.7209 0.871911 32.9263C0.633852 33.0593 0.383263 33.1923 0.132675 33.3131C-0.0176786 33.3857 -0.030208 33.5065 0.0449686 33.6274C0.270498 34.0021 0.483499 34.3648 0.721558 34.7274C0.834323 34.9087 0.959617 34.9208 1.16009 34.7878C1.68632 34.4614 2.20003 34.1472 2.7388 33.845C3.08962 33.6395 3.44044 33.4582 3.79127 33.2648C4.19221 33.0472 4.58062 32.8296 4.98156 32.6121C5.20709 32.4791 5.45768 32.4912 5.69574 32.5637C6.02151 32.6725 6.34727 32.6846 6.67304 32.5637C6.93616 32.4791 7.2118 32.4187 7.48745 32.3582C7.57516 32.3341 7.6378 32.3703 7.66286 32.467C10.0309 39.6107 14.7295 44.8083 21.7585 48.0357C24.0263 49.0752 26.432 49.728 28.9128 50.0664C30.8173 50.3323 32.7217 50.4049 34.6387 50.2477C41.3796 49.6917 47.093 47.0445 51.7414 42.2941C54.8738 39.0789 56.9411 35.3076 58.0312 31.0286C58.0813 30.8231 58.2066 30.6781 58.4572 30.6176C58.6577 30.5693 58.8456 30.4605 59.021 30.3638C59.3844 30.1583 59.7477 29.9166 60.1236 29.7232C60.3992 29.5781 60.5747 29.3484 60.7877 29.155C60.9004 29.0583 61.0132 28.9858 61.1385 28.9012C61.2137 28.8529 61.3139 28.8166 61.3515 28.7562C61.5645 28.4419 61.7524 28.1155 61.9529 27.7892C61.9654 27.765 61.978 27.7287 61.978 27.6925C61.9654 27.2936 62.2912 27.1727 62.5794 27.0156C62.8801 26.8463 63.1808 26.6529 63.494 26.4837C63.9075 26.254 64.321 26.0486 64.7344 25.8189C65.2607 25.5288 65.7744 25.2387 66.2881 24.9365C66.4259 24.8519 66.4259 24.7552 66.2756 24.6101ZM42.0687 16.8983C42.194 16.7049 42.3318 16.4994 42.4696 16.3181C42.7077 16.0038 42.9708 15.7017 43.2214 15.3995C43.259 15.3511 43.2966 15.3028 43.3342 15.2544C43.5472 14.9643 43.7852 14.6863 43.9857 14.3841C44.3616 13.8523 44.8502 13.4171 45.3138 12.9578C45.4516 12.8127 45.6396 12.716 45.815 12.5952C45.8526 12.571 45.9027 12.5589 45.9277 12.5226C46.1533 12.3292 46.3788 12.1238 46.6169 11.9304C46.7171 11.8457 46.8549 11.7974 46.9802 11.7249C47.0554 11.6886 47.1682 11.6765 47.2183 11.6161C47.4563 11.3502 47.7821 11.2655 48.1079 11.1688C48.4587 11.0601 48.822 10.9754 49.1854 10.8908C49.3859 10.8425 49.5989 10.782 49.7993 10.7458C49.8745 10.7337 49.9622 10.7337 50.0249 10.7579C50.1878 10.7941 50.3506 10.8667 50.5261 10.8908C51.0147 10.9754 51.4407 11.1809 51.7915 11.5436C52.0421 11.7974 52.2927 12.0633 52.5433 12.3292C52.5934 12.3776 52.631 12.4501 52.6561 12.5106C52.844 13.0424 53.0069 13.5743 53.057 14.1182C53.0695 14.2753 53.057 14.4325 53.0319 14.5896C52.9693 14.9522 52.8816 15.3028 52.7939 15.6533C52.7813 15.6896 52.7814 15.7137 52.7814 15.75C52.7814 16.0643 52.6811 16.3544 52.5809 16.6566C52.2927 17.4785 51.9544 18.3005 51.566 19.0862C51.4407 19.34 51.2653 19.5817 51.1149 19.8235C51.0523 19.9202 50.9896 20.0048 50.9521 20.1136C50.7391 20.6575 50.4133 21.1289 50.0875 21.6004C49.7868 22.0355 49.4611 22.4344 49.1729 22.8695C48.7594 23.4739 48.2332 23.9695 47.732 24.4893C47.6693 24.5618 47.5942 24.6222 47.544 24.6948C47.3812 24.9849 47.1556 25.2024 46.905 25.4321C46.479 25.8189 46.0906 26.242 45.6646 26.6408C45.4767 26.8222 45.2637 26.9672 45.0507 27.1243C44.8878 27.2452 44.7375 27.3661 44.5746 27.487C44.324 27.6804 44.0734 27.8979 43.8103 28.0793C43.4469 28.3331 43.0836 28.5869 42.6952 28.8045C42.5573 28.8891 42.3443 28.9254 42.2065 28.8891C41.8056 28.7924 41.4172 28.6474 41.0162 28.5144C40.8408 28.454 40.7907 28.321 40.8533 28.1397C41.0663 27.5595 41.2919 26.9793 41.4798 26.387C41.58 26.0606 41.6928 25.7585 41.8807 25.4804C41.9183 25.42 41.981 25.3475 42.0436 25.3112C42.4947 25.0816 42.8831 24.7794 43.2339 24.4409C43.2715 24.4047 43.2966 24.3805 43.3342 24.3563C43.8855 24.0662 44.2237 23.5585 44.6873 23.1717C45.1509 22.7849 45.4516 22.2773 45.815 21.8179C46.1032 21.4674 46.4164 21.1169 46.6795 20.7542C47.0679 20.2224 47.3937 19.6543 47.7821 19.1103C47.9575 18.8565 48.1204 18.6147 48.2457 18.3367C48.4838 17.8291 48.7218 17.3335 48.9724 16.8258C48.9975 16.7654 49.0225 16.7049 49.0601 16.6566C49.1729 16.4994 49.248 16.3423 49.2355 16.1368C49.2355 16.0643 49.2731 15.9918 49.2856 15.9192C49.3232 15.6896 49.3859 15.472 49.3984 15.2423C49.4109 14.8797 49.1854 14.6863 48.8095 14.7226C48.7719 14.7226 48.7469 14.7226 48.7343 14.7347C48.2708 14.7105 47.945 14.9039 47.6568 15.2182C47.519 15.3632 47.3561 15.4962 47.2183 15.6533C46.88 16.0038 46.5417 16.3544 46.2285 16.717C46.0155 16.9708 45.8526 17.2609 45.6772 17.539C45.4391 17.9016 45.2261 18.2763 44.988 18.6389C44.75 19.0015 44.4869 19.3521 44.2613 19.7147C44.0985 19.9806 43.9732 20.2707 43.8353 20.5487C43.5221 21.1289 43.1963 21.6971 42.8831 22.2773C42.5699 22.8695 42.2942 23.4739 41.9935 24.0783C41.9685 24.1266 41.9309 24.1871 41.9309 24.2475C41.8933 24.5618 41.7053 24.8156 41.5675 25.0816C41.4798 25.2508 41.4046 25.42 41.342 25.5892C41.129 26.1453 40.916 26.7134 40.7155 27.2815C40.6278 27.5232 40.5526 27.7771 40.4649 28.0188C40.3897 28.2364 40.2269 28.2968 40.0139 28.2122C39.7382 28.0913 39.4626 27.9946 39.1994 27.8617C38.7484 27.6199 38.2848 27.3782 37.9465 26.9914C37.7335 26.7496 37.6207 26.4354 37.6458 26.109C37.6583 25.9639 37.6709 25.8068 37.721 25.6738C37.8964 25.1783 38.0843 24.6827 38.2723 24.1871C38.4351 23.764 38.6106 23.353 38.786 22.93C38.9489 22.5432 39.1117 22.1564 39.2746 21.7696C39.2871 21.7454 39.2997 21.7091 39.3122 21.685C39.9512 20.7301 40.3772 19.6664 40.941 18.6631C41.2793 18.0708 41.6803 17.4906 42.0687 16.8983ZM30.266 15.1819C30.2409 15.1456 30.2033 15.1094 30.1657 15.0852C29.8525 14.916 29.6144 14.6621 29.414 14.372C29.1258 13.9731 28.8376 13.5863 28.7875 13.0666C28.7499 12.6435 28.6622 12.2205 28.6998 11.7853C28.7499 11.2172 28.9253 10.6974 29.2385 10.2139C29.3388 10.0568 29.5017 9.93592 29.627 9.79087C30.1657 9.17441 30.8674 8.7997 31.6442 8.57003C31.97 8.47334 32.3208 8.44916 32.634 8.40081C33.3482 8.49751 34.0248 8.57003 34.6137 8.95683C34.7139 9.02936 34.8267 9.07771 34.9394 9.13815C35.5409 9.45242 35.9167 9.9601 36.255 10.504C36.443 10.7941 36.5307 11.1205 36.5683 11.4589C36.5808 11.5436 36.5933 11.6282 36.6309 11.7128C36.7061 11.9183 36.7061 12.1238 36.656 12.3413C36.6309 12.4743 36.6059 12.6073 36.5933 12.7402C36.5307 13.405 36.2425 13.9852 35.804 14.4929C35.6035 14.7347 35.378 14.9643 35.1274 15.1577C34.9144 15.3269 34.6638 15.472 34.4132 15.5808C34.0123 15.7621 33.5863 15.9071 33.1477 15.9676C32.5213 16.0522 31.9198 15.9192 31.3184 15.7258C31.2057 15.6896 31.0804 15.6412 30.9676 15.605C30.7045 15.5203 30.4539 15.4116 30.266 15.1819ZM30.8173 16.3906C30.6669 16.7774 30.4915 17.1642 30.3286 17.551C30.1783 17.9137 29.865 18.1071 29.5142 18.2763C29.3137 18.373 29.0882 18.4334 28.8752 18.506C28.4367 18.3851 28.0107 18.3126 27.6348 18.1312C27.1336 17.9016 26.8329 17.4664 26.6951 16.9346C26.6825 16.9104 26.6825 16.8862 26.67 16.8621C26.3693 16.1368 26.6825 15.5808 27.1712 15.0731C27.4468 14.7951 27.7977 14.638 28.1485 14.4808C28.2613 14.4325 28.3615 14.3599 28.4743 14.2995C28.5995 14.227 28.7123 14.2512 28.7875 14.372C28.9378 14.6017 29.0882 14.8434 29.2636 15.0368C29.627 15.4478 30.0404 15.7984 30.5792 15.9918C30.8674 16.0885 30.905 16.1489 30.8173 16.3906ZM30.9676 17.5269C31.0678 17.2126 31.1555 16.8983 31.2433 16.584C31.3059 16.3906 31.3686 16.3302 31.5816 16.3544C31.8572 16.3906 32.1328 16.4753 32.4085 16.4994C32.7092 16.5236 33.0099 16.5357 33.3106 16.4994C33.5612 16.4753 33.7993 16.3786 34.0499 16.3181C34.2503 16.2698 34.3506 16.306 34.4257 16.4873C34.6137 16.9708 34.7891 17.4423 34.952 17.9378C34.9896 18.0345 34.9896 18.1433 34.9645 18.24C34.8267 18.8807 34.4633 19.3642 33.8619 19.6664C33.5612 19.8235 33.2354 19.8477 32.9097 19.8477C32.5213 19.8598 32.1955 19.7026 31.8447 19.5576C31.3936 19.3763 31.1681 19.0499 31.0303 18.6389C30.9175 18.2884 30.8423 17.9137 30.9676 17.5269ZM34.8768 16.3786C34.7515 16.1489 34.8016 16.028 35.0271 15.8951C35.5409 15.617 35.9919 15.2786 36.3051 14.783C36.4179 14.6138 36.5432 14.4446 36.656 14.2874C36.7437 14.1545 36.8815 14.1061 37.0193 14.1786C37.4954 14.3962 38.0217 14.505 38.4602 14.8193C38.7359 15.0127 38.8737 15.2907 38.999 15.5687C39.0616 15.7137 39.0491 15.883 39.0742 16.028C39.0115 16.4511 39.0115 16.8741 38.7609 17.2247C38.4602 17.6357 38.0718 17.9378 37.5581 18.0708C37.4579 18.095 37.3576 18.1433 37.2449 18.1554C37.082 18.1796 36.9066 18.2038 36.7437 18.1796C36.5432 18.1433 36.3427 18.0708 36.1423 18.0104C35.829 17.9016 35.6286 17.6477 35.4531 17.406C35.2401 17.0917 35.0773 16.7291 34.8768 16.3786ZM39.6129 10.4315C39.8384 10.6249 40.0765 10.8304 40.2895 11.0359C40.515 11.2535 40.5902 11.5315 40.5777 11.8337C40.5777 11.9304 40.5902 12.0271 40.5902 12.1238H40.6153C40.5902 12.3776 40.5902 12.6435 40.5526 12.8974C40.5025 13.1995 40.277 13.4171 40.0765 13.6347C39.5879 14.1545 38.9614 14.2512 38.2973 14.0698C37.959 13.9852 37.6333 13.8402 37.3075 13.7072C37.082 13.6105 36.9441 13.3446 37.0319 13.1391C37.1822 12.8007 37.1196 12.4622 37.1321 12.1238C37.1446 11.9062 37.1321 11.7007 37.1196 11.4831C37.107 11.3622 37.082 11.2293 37.0319 11.1205C36.9066 10.8304 36.9692 10.7095 37.2824 10.6491C37.4829 10.6128 37.6709 10.5524 37.8588 10.4799C38.385 10.2502 38.9238 10.2623 39.4751 10.3469C39.5252 10.3832 39.5753 10.3952 39.6129 10.4315ZM35.4782 6.80526C35.6787 6.5756 35.9293 6.43055 36.2174 6.33385C36.3929 6.27341 36.5683 6.21297 36.7562 6.17671C36.869 6.15254 37.0068 6.14045 37.1196 6.16462C37.7084 6.2855 38.2222 6.55142 38.598 7.02283C38.8612 7.3492 38.9363 7.72391 38.9614 8.14697C38.9363 8.37664 38.9363 8.63047 38.8737 8.87222C38.7985 9.16232 38.6607 9.44033 38.36 9.58538C38.2848 9.62165 38.2347 9.67 38.172 9.71835C38.147 9.74252 38.1219 9.77878 38.0843 9.79087C37.6583 9.9601 37.2824 10.2502 36.8063 10.2502C36.7311 10.2502 36.6309 10.1777 36.5808 10.1172C36.1673 9.44033 35.6035 8.92057 34.9019 8.53377C34.6763 8.4129 34.6387 8.32828 34.739 8.09862C34.9394 7.65138 35.1399 7.19206 35.4782 6.80526ZM30.9801 5.24597C31.4187 4.77456 31.9825 4.60534 32.5839 4.53281C32.8345 4.50864 33.1101 4.60534 33.3733 4.67786C33.887 4.835 34.2628 5.17345 34.5009 5.6086C34.7766 6.11627 34.8141 6.6723 34.5636 7.22832C34.4633 7.45798 34.3631 7.69973 34.2628 7.94148C34.1751 8.17115 34.0874 8.19532 33.8368 8.14697C33.4234 8.06236 33.0224 7.91731 32.5964 7.97775C32.2206 8.0261 31.8447 8.08653 31.4688 8.17115C31.2433 8.2195 31.1681 8.19532 31.0678 8.00192C30.9551 7.77226 30.8047 7.56677 30.7421 7.32502C30.6418 6.97448 30.6043 6.62395 30.5541 6.30967C30.6043 5.88661 30.692 5.56025 30.9801 5.24597ZM26.4069 7.62721C26.4069 7.60303 26.4194 7.56677 26.432 7.55468C26.5823 7.37337 26.7201 7.17997 26.883 7.02283C27.0334 6.87778 27.2213 6.73274 27.4092 6.64812C27.735 6.51516 28.0984 6.43055 28.4367 6.34594C28.5118 6.32176 28.6246 6.3822 28.7123 6.40637C28.8 6.43055 28.8752 6.4789 28.9629 6.49099C29.4515 6.56351 29.7648 6.87778 30.0154 7.2525C30.2033 7.53051 30.3787 7.80852 30.5541 8.09862C30.7045 8.34037 30.692 8.38872 30.4539 8.54586C30.0028 8.84805 29.5142 9.11397 29.1759 9.54912C29.0631 9.69417 28.9629 9.8634 28.8627 10.0084C28.8 10.0931 28.7499 10.1777 28.6747 10.2623C28.5244 10.4315 28.3865 10.4678 28.1735 10.3711C27.7726 10.1777 27.3842 9.97218 26.9832 9.79087C26.6951 9.65791 26.5322 9.40407 26.4445 9.12606C26.3693 8.88431 26.3317 8.63047 26.2941 8.4129C26.3568 8.1228 26.3818 7.86896 26.4069 7.62721ZM24.966 11.3743C25.3043 10.77 25.8807 10.4436 26.6324 10.504V10.4557C26.9457 10.5282 27.2714 10.6007 27.5847 10.6853C27.7726 10.7337 27.948 10.7941 28.136 10.8546C28.3114 10.915 28.4116 11.0238 28.349 11.1809C28.1986 11.5315 28.2738 11.9062 28.2613 12.2567C28.2487 12.4985 28.2487 12.7523 28.2738 12.9941C28.2863 13.1149 28.3239 13.2479 28.374 13.3688C28.5118 13.683 28.4743 13.8402 28.136 13.9611C27.735 14.1061 27.3466 14.2512 26.9331 14.3237C26.4695 14.3962 25.9809 14.3962 25.605 14.0094C25.4421 13.8402 25.2291 13.7193 25.1038 13.538C24.6277 12.8369 24.5776 12.0875 24.966 11.3743ZM4.84374 32.1407C4.66833 32.2857 4.50545 32.4549 4.31751 32.5637C3.94162 32.7813 3.54068 32.9626 3.1648 33.1802C2.57591 33.5186 1.99956 33.8692 1.41068 34.2197C1.37309 34.2439 1.32297 34.2681 1.27285 34.2801C0.984676 34.3768 0.784205 34.4252 0.67144 34.0142C0.658911 33.9538 0.633852 33.9054 0.608793 33.845C0.508558 33.6153 0.521087 33.5186 0.734087 33.3736C0.972147 33.2164 1.21021 33.0593 1.44827 32.9142C1.82415 32.6967 2.21256 32.5033 2.60097 32.2978C2.92674 32.1165 3.23997 31.8989 3.55321 31.7176C3.76621 31.5846 3.97921 31.4638 4.20474 31.355C4.25486 31.3308 4.35509 31.3308 4.41774 31.355C4.56809 31.4033 4.88133 31.8747 4.88133 32.056C4.88133 32.056 4.8688 32.1165 4.84374 32.1407ZM14.5039 25.9881C14.3786 26.1573 14.2408 26.3145 14.1281 26.4837C13.7021 27.1243 13.1508 27.6562 12.5869 28.188C12.2737 28.4902 11.998 28.8287 11.6848 29.1309C11.5219 29.3001 11.3215 29.4331 11.1335 29.5902C11.1085 29.6144 11.0709 29.6265 11.0458 29.6506C10.7326 29.9166 10.4193 30.1946 10.0936 30.4605C9.83045 30.666 9.54228 30.8715 9.2541 31.0528C8.84063 31.3187 8.42716 31.5605 8.00116 31.8022C7.63781 32.0077 6.59786 32.2615 6.04657 32.2736C5.75839 32.2615 5.40757 32.1527 5.2071 31.7539C5.13192 31.5846 5.00662 31.4396 4.89386 31.2824C4.66833 30.9561 4.6558 30.6297 4.83121 30.2671C4.98157 29.9528 5.2071 29.7594 5.49527 29.5902C6.02151 29.2638 6.51016 28.9012 7.02386 28.5628C7.43733 28.2847 7.87586 28.0188 8.28934 27.7529C8.35198 27.7166 8.41463 27.6804 8.46475 27.632C9.31675 26.8584 10.1687 26.0969 11.0082 25.3112C11.5846 24.7673 12.0983 24.1629 12.4366 23.4497C12.5744 23.1596 12.6872 23.1476 12.9628 23.2926C13.6018 23.6431 14.2283 24.042 14.955 24.2113C15.0552 24.2354 15.168 24.2354 15.2682 24.2717C15.3559 24.308 15.4812 24.3563 15.5063 24.4167C15.5313 24.4893 15.4687 24.5981 15.4311 24.6827C15.381 24.7673 15.3058 24.8519 15.2557 24.9365C15.0176 25.287 14.7545 25.6376 14.5039 25.9881ZM25.5674 31.7418C25.2667 31.9473 24.966 32.1648 24.6402 32.3461C24.089 32.6483 23.5251 32.9384 22.9488 33.2164C22.8109 33.289 22.6481 33.301 22.4977 33.3373C22.2972 33.3857 22.1093 33.434 21.9088 33.4824C21.3199 33.6153 20.7185 33.7725 20.1046 33.712C19.5282 33.6516 18.9519 33.4944 18.3755 33.3977C17.9245 33.3252 17.5987 33.0472 17.2353 32.8296C16.8971 32.6242 16.5838 32.3824 16.3082 32.1044C16.2205 32.0198 16.1453 31.9231 16.0826 31.8264C15.6692 31.2583 15.3685 30.6418 15.3058 29.9407C15.2557 29.3122 15.2432 28.6957 15.381 28.0672C15.4562 27.7287 15.5188 27.4024 15.6065 27.0639C15.6316 26.9551 15.6817 26.8463 15.7318 26.7496C15.8696 26.4354 16.0075 26.1332 16.1453 25.8189C16.233 25.6497 16.3332 25.4804 16.446 25.3112C16.7467 24.9002 17.0474 24.4772 17.3857 24.0783C17.7115 23.6915 18.0623 23.3289 18.4256 22.9662C18.7389 22.6641 19.0772 22.386 19.3904 22.0959C19.4906 22.0113 19.5282 21.8905 19.428 21.7696C19.3403 21.6729 19.215 21.685 19.1273 21.7696C18.5885 22.2652 18.0498 22.7608 17.5235 23.2684C17.3231 23.4618 17.1476 23.7036 16.9472 23.9091C16.8093 24.0541 16.6339 24.1025 16.4335 24.0662C16.0075 23.9937 15.5815 23.9332 15.1555 23.8365C14.9174 23.7761 14.6793 23.6794 14.4538 23.5706C13.9526 23.3168 13.4389 23.0871 12.9753 22.7849C12.6746 22.5915 12.424 22.3135 12.1735 22.0476C11.9479 21.8058 11.7475 21.5399 11.5595 21.274C11.2212 20.7784 11.1085 20.1861 10.933 19.6301C10.7326 18.9895 10.8078 18.3851 10.9581 17.7444C11.1586 16.8983 11.6723 16.2819 12.3238 15.7379C12.6872 15.4236 13.0881 15.2061 13.5642 15.0973C13.8399 15.0368 14.1155 14.9522 14.4037 14.9039C14.529 14.8797 14.6668 14.8918 14.8046 14.916C15.2933 14.9885 15.7193 15.2182 16.1703 15.3995C16.8469 15.6775 17.1978 16.2214 17.4108 16.8379C17.5361 17.2126 17.5486 17.6357 17.5987 18.0345C17.6614 18.506 17.5987 18.9774 17.5235 19.4488C17.4859 19.6905 17.4734 19.9323 17.4358 20.174C17.4108 20.2828 17.3481 20.4037 17.2729 20.4883C17.1602 20.6334 16.9848 20.6696 16.7968 20.6092C16.2581 20.4158 15.7193 20.2224 15.2306 19.9081C14.8297 19.6422 14.4914 19.3279 14.4789 18.7961C14.4789 18.6147 14.4162 18.4455 14.3786 18.2763C14.3536 18.1554 14.2784 18.0708 14.1531 18.0708C14.0028 18.0587 13.8399 18.0708 13.7898 18.2159C13.7146 18.3972 13.6519 18.6027 13.677 18.7961C13.7146 19.0982 13.8524 19.3763 14.1155 19.5697C14.2784 19.6905 14.4288 19.8356 14.5916 19.9565C15.0678 20.3191 15.594 20.585 16.1578 20.7784C16.3332 20.8388 16.5212 20.9235 16.6966 20.9476C17.0975 20.996 17.4985 21.0081 17.937 21.0443C18.3881 21.0081 18.8767 20.9597 19.3528 20.9114C19.3779 20.9114 19.4155 20.8993 19.4405 20.8872C19.8415 20.6575 20.3051 20.6092 20.7436 20.5487C21.2698 20.4762 21.8086 20.4762 22.2597 20.8509C22.4601 21.0202 22.6982 21.1531 22.8611 21.3707C22.8861 21.407 22.9237 21.4432 22.9362 21.4795C23.2369 22.2531 23.1492 23.0025 22.6857 23.6915C22.5353 23.9091 22.3098 24.0662 22.1218 24.2475C21.7334 24.6222 21.3701 25.0453 20.9441 25.3596C20.4554 25.7222 20.1171 26.1936 19.7412 26.6529C19.4405 27.0156 19.1899 27.4144 19.0646 27.8859C18.9394 28.321 18.9519 28.7441 18.9769 29.1792C18.9895 29.3243 19.0646 29.4814 19.1649 29.6023C19.4781 30.0012 19.8916 30.2913 20.4304 30.3396C20.4805 30.3396 20.5431 30.3517 20.5932 30.3396C20.9315 30.2792 21.2824 30.2429 21.6081 30.1341C21.9589 30.0253 22.2722 29.844 22.6105 29.699C22.6731 29.6748 22.7358 29.6265 22.8109 29.6023C23.2369 29.4451 23.6003 29.2155 23.9261 28.9012C24.1516 28.6836 24.4147 28.5023 24.6653 28.3089C24.7781 28.2243 24.9159 28.2606 24.9535 28.4056C24.9911 28.5507 25.0036 28.6957 25.0161 28.8408C25.0537 29.1671 25.0662 29.4935 25.1414 29.8078C25.2792 30.3396 25.4672 30.8594 25.6426 31.3791C25.7052 31.5363 25.6802 31.6572 25.5674 31.7418ZM34.977 32.7571C34.1877 32.9868 33.4234 33.3131 32.5839 33.3615C32.0326 33.3978 31.4938 33.4945 30.9551 33.4824C30.2534 33.4703 29.5518 33.4098 28.8501 33.289C28.3239 33.2044 27.8478 32.9747 27.4092 32.6725C27.1962 32.5275 26.9582 32.4187 26.7953 32.189C26.5447 31.8264 26.2315 31.5 26.006 31.1132C25.8556 30.8473 25.793 30.533 25.6927 30.2429C25.6301 30.0616 25.5674 29.8682 25.5298 29.6748C25.4797 29.3243 25.4547 28.9616 25.4171 28.6715C25.3795 27.9584 25.4171 27.3177 25.605 26.7013C25.6677 26.52 25.6426 26.3024 25.7052 26.1211C26.006 25.1903 26.3818 24.2838 26.8705 23.4377C27.0334 23.1476 27.1963 22.8575 27.3717 22.5674C27.3842 22.5553 27.3842 22.5432 27.3967 22.5311C27.8854 22.0718 28.2111 21.4795 28.775 21.0806C29.0005 20.9114 29.226 20.7421 29.4641 20.5729C29.6019 20.4641 30.6168 20.2707 30.7797 20.2949C31.4187 20.4158 31.9449 20.7301 32.3458 21.2136C32.396 21.274 32.421 21.3465 32.4336 21.419C32.4711 21.6245 32.4962 21.83 32.5338 22.0355C32.5964 22.3256 32.5714 22.6157 32.4962 22.9058C32.4461 23.0871 32.4711 23.2926 32.4085 23.4618C32.2581 23.8365 32.0827 24.1871 31.9073 24.5497C31.8321 24.7068 31.7444 24.864 31.6693 25.009C31.5816 25.1662 31.4938 25.3233 31.3936 25.4804C31.0553 25.9639 30.717 26.4595 30.3787 26.943C30.2158 27.1727 30.053 27.4024 29.8901 27.6199C29.8525 27.6683 29.8149 27.7166 29.7648 27.7408C29.7147 27.765 29.627 27.8012 29.5894 27.7771C29.5393 27.7529 29.5017 27.6804 29.4891 27.6199C29.4766 27.5353 29.5017 27.4507 29.5142 27.3661C29.5894 27.076 29.7147 26.7859 29.7523 26.4837C29.8149 26.0244 30.0279 25.6134 30.2158 25.1903C30.3913 24.8156 30.6418 24.4772 30.8423 24.1146C30.93 23.9574 30.9801 23.7761 31.0428 23.5948C31.0553 23.5585 31.0052 23.4618 30.9676 23.4618C30.8924 23.4497 30.7671 23.4497 30.717 23.486C30.5667 23.6552 30.4288 23.8486 30.3035 24.042C30.2284 24.1629 30.1657 24.2959 30.1031 24.4288C29.8901 24.864 29.6771 25.2991 29.4891 25.7343C29.4014 25.9398 29.3388 26.1573 29.2887 26.3749C29.1508 26.9189 29.0381 27.4628 29.0757 28.0309C29.1007 28.4419 29.2385 28.7924 29.439 29.1309C29.5393 29.288 29.652 29.4451 29.7523 29.5902C29.7898 29.6385 29.8274 29.6869 29.8775 29.7232C30.5541 30.1946 31.3184 30.3517 32.1328 30.1825C32.5213 30.11 32.8846 29.977 33.2605 29.8561C33.5487 29.7715 33.8243 29.6748 34.1125 29.5902C34.1626 29.5781 34.2503 29.5902 34.3004 29.6265C34.4383 29.7232 34.5761 29.8319 34.7014 29.9407C34.9018 30.0979 35.1023 30.2792 35.3153 30.4242C35.6286 30.6297 35.7288 30.8715 35.6411 31.222C35.5534 31.5363 35.4657 31.8506 35.4156 32.1769C35.378 32.4912 35.2401 32.6846 34.977 32.7571ZM44.8001 41.1579C44.7124 42.1854 44.2488 43.0677 43.6349 43.8776C43.4469 44.1194 43.2715 44.3732 43.046 44.5787C42.833 44.7721 42.5824 44.9413 42.3193 45.0864C41.342 45.6666 40.302 45.6545 39.2621 45.2918C38.8486 45.1468 38.4853 44.8809 38.1595 44.5787C37.959 44.3853 37.721 44.204 37.5581 43.9864C37.3326 43.6842 37.1571 43.3458 36.9692 43.0315C36.9567 43.0194 36.9692 42.9952 36.9567 42.9831C36.6309 42.5722 36.5808 42.0524 36.3302 41.6172C36.2049 41.3755 36.1548 41.0975 36.0671 40.8316C36.0044 40.6382 35.9543 40.4448 35.9167 40.2514C35.829 39.8404 35.7288 39.4294 35.6787 39.0184C35.616 38.5591 35.5784 38.0998 35.5409 37.6405C35.5158 37.3624 35.5033 37.0844 35.4907 36.8064H35.4657C35.5033 36.1537 35.5408 35.4889 35.5784 34.8362C35.616 34.1834 35.616 33.5307 35.7163 32.878C35.804 32.322 35.9794 31.7659 36.1297 31.2099C36.1673 31.089 36.255 31.077 36.3678 31.1253C37.0193 31.4033 37.6709 31.6692 38.3224 31.9352C38.4978 32.0077 38.6857 32.044 38.8737 32.0923C39.1619 32.1648 39.1994 32.2615 39.1368 32.5395C39.024 33.0835 38.9113 33.6395 38.8486 34.1955C38.786 34.7274 38.7734 35.2592 38.7609 35.7911C38.7484 36.2988 38.7609 36.8185 38.7609 37.3262C38.7609 37.3745 38.7609 37.435 38.7734 37.4833C38.8486 37.9668 38.9238 38.4382 39.0115 38.9096C39.0491 39.103 39.1117 39.2964 39.1744 39.4898C39.2746 39.8404 39.3874 40.203 39.4876 40.5535C39.5753 40.8557 39.7132 41.1217 39.9136 41.3634C40.302 41.8106 40.9285 41.7139 41.1916 41.303C41.3921 40.9887 41.4547 40.6382 41.4923 40.2755C41.5174 39.9492 41.4798 39.6107 41.5926 39.2844C41.6176 39.1997 41.5926 39.1031 41.5926 39.0064C41.555 38.7283 41.5299 38.4624 41.4923 38.1844C41.4673 38.0031 41.4297 37.8339 41.4046 37.6525C41.3545 37.4108 41.3294 37.169 41.2668 36.9273C41.1916 36.6493 41.1039 36.3834 41.0162 36.1174C40.9661 35.9724 40.916 35.8273 40.8784 35.6823C40.5902 34.7757 40.2895 33.8812 39.8009 33.0472C39.7257 32.9142 39.663 32.7571 39.6129 32.6121C39.5628 32.4428 39.6254 32.3582 39.8259 32.3824C40.1642 32.4308 40.49 32.5033 40.8157 32.5637C41.1916 32.6362 41.58 32.7088 41.9559 32.7813C42.3569 32.8659 42.7703 32.9505 43.1587 33.0835C43.284 33.1197 43.3968 33.2648 43.4594 33.3857C43.5973 33.6274 43.71 33.8933 43.8228 34.1593C43.8604 34.2318 43.8729 34.3164 43.8855 34.3889C43.923 34.534 43.9732 34.679 44.0107 34.8241C44.111 35.1383 44.2112 35.4405 44.3115 35.7548C44.3365 35.8394 44.3616 35.9361 44.3866 36.0207C44.5871 36.5405 44.75 37.0603 44.7375 37.6163C44.7375 37.8218 44.8001 38.0393 44.8126 38.2448C44.8377 38.6316 44.8502 39.0184 44.8627 39.4052C44.8627 39.4294 44.8502 39.4657 44.8627 39.4898C45.0507 40.07 44.8502 40.614 44.8001 41.1579ZM61.4642 27.6683C61.3515 28.0913 61.0132 28.3573 60.7125 28.6474C60.5496 28.8045 60.3742 28.9737 60.1988 29.1188C60.0609 29.2276 59.8981 29.3243 59.7352 29.421C59.447 29.5902 59.1714 29.7594 58.8832 29.9166C58.5198 30.0979 58.1439 30.2671 57.7806 30.4363C57.6428 30.4968 57.5175 30.5693 57.3797 30.6176C57.1792 30.7022 56.9662 30.7627 56.7657 30.8352C56.7031 30.8594 56.6529 30.8715 56.5903 30.8956C56.1518 31.0649 55.7258 31.2341 55.2872 31.4033C54.8237 31.5846 54.3475 31.7539 53.8839 31.911C53.5582 32.0198 53.2074 32.0923 52.8691 32.189C52.2426 32.3461 51.6036 32.4428 50.9521 32.5033C50.501 32.5395 50.0625 32.6725 49.6114 32.7209C49.2856 32.7571 48.9599 32.745 48.6341 32.7692C48.0703 32.7934 47.5065 32.8296 46.9426 32.8538C46.667 32.8659 46.3788 32.8538 46.0906 32.8538V32.8659C45.4642 32.8417 44.8502 32.8417 44.2363 32.7934C43.7977 32.7571 43.3717 32.6604 42.9332 32.5879C42.5573 32.5275 42.1815 32.4791 41.8056 32.4187C41.5299 32.3703 41.2543 32.322 40.9786 32.2615C40.5902 32.1769 40.2018 32.0923 39.8009 32.0077C39.7257 31.9956 39.6505 31.9593 39.5753 31.9352C39.3122 31.8506 39.0491 31.7659 38.786 31.6813C38.6732 31.6451 38.5604 31.6209 38.4602 31.5846C37.8212 31.2824 37.1947 30.944 36.5307 30.6781C35.6912 30.3396 35.0773 29.7473 34.4633 29.1309C34.3255 28.9858 34.2253 28.7924 34.1501 28.6111C34.0123 28.2727 33.8995 27.91 33.7742 27.5595C33.7617 27.5111 33.7491 27.4628 33.7617 27.4144C33.8744 27.0276 33.9621 26.6288 34.125 26.2661C34.2879 25.9277 34.5761 25.6618 34.952 25.5288C35.2151 25.4321 35.4907 25.3475 35.7664 25.287C35.9669 25.2508 36.1673 25.275 36.3678 25.287C36.5307 25.2991 36.6936 25.3475 36.8564 25.3596C37.0319 25.3837 37.1446 25.4684 37.1571 25.6376C37.1947 25.9519 37.2323 26.2782 37.2449 26.5925C37.2574 26.7496 37.2824 26.8826 37.4077 27.0035C37.4829 27.076 37.533 27.1727 37.6082 27.2452C37.721 27.3661 37.8463 27.487 37.9841 27.5837C38.2096 27.7408 38.4352 27.8738 38.6732 28.0188C38.9363 28.176 39.1869 28.3331 39.4626 28.454C39.7006 28.5628 39.9637 28.6353 40.2269 28.7199C40.7907 28.9012 41.3545 29.0825 41.9183 29.2517C42.1063 29.3122 42.3193 29.3364 42.5197 29.3726C42.8706 29.4331 43.2339 29.4935 43.5847 29.5298C43.8479 29.5539 44.111 29.5298 44.3741 29.5539C44.6247 29.566 44.8627 29.6144 45.1133 29.6506C45.201 29.6627 45.2888 29.6869 45.3765 29.6869C46.3287 29.6869 47.2684 29.6869 48.2206 29.6748C48.396 29.6748 48.5589 29.6265 48.7343 29.5902H48.7469C49.223 29.5177 49.6991 29.4572 50.1752 29.3847C50.4258 29.3484 50.6639 29.3122 50.9019 29.2638C51.353 29.1671 51.8041 29.0825 52.2551 28.9496C52.844 28.7803 53.4204 28.5748 54.0092 28.3935C54.2598 28.3089 54.5355 28.2485 54.7735 28.1276C55.4501 27.8133 56.1267 27.4749 56.8033 27.1606C57.3421 26.9068 57.8808 26.665 58.4196 26.4354C58.5073 26.3991 58.6075 26.3749 58.7078 26.3507C59.1087 26.242 59.4971 26.1211 59.8981 26.0244C60.0484 25.9881 60.2238 25.9881 60.3742 26.0365C60.6749 26.1211 60.913 26.3024 61.0758 26.5683C61.2011 26.7738 61.3264 26.9793 61.4392 27.1969C61.5269 27.354 61.5144 27.4991 61.4642 27.6683ZM65.5739 24.9123C65.1354 25.142 64.7094 25.3596 64.2708 25.6013C64.0954 25.698 63.9325 25.8189 63.7697 25.9277C63.3812 26.1573 62.9928 26.387 62.5919 26.6046C62.429 26.7013 62.2536 26.7738 62.0782 26.8584C62.0406 26.8705 62.003 26.8826 61.9404 26.8947C61.8777 26.8584 61.79 26.8463 61.7399 26.7859C61.6271 26.665 61.5269 26.5441 61.4517 26.4112C61.364 26.254 61.4267 26.0969 61.5895 25.9881C61.7399 25.8914 61.8777 25.7826 62.0281 25.6859C62.0657 25.6618 62.1032 25.6134 62.1408 25.6134C62.4917 25.553 62.7297 25.287 63.043 25.1541C63.2184 25.0695 63.3812 24.9365 63.5441 24.8277C63.682 24.7431 63.8323 24.6585 63.9701 24.5739C64.3335 24.3805 64.6968 24.1992 65.0477 24.0058C65.173 23.9332 65.2732 23.9574 65.3484 24.0541C65.4737 24.2354 65.599 24.4288 65.6992 24.6343C65.7744 24.7189 65.7117 24.8398 65.5739 24.9123Z" fill="#1DB100"/>
<path d="M2.68859 32.6604C2.56329 32.6725 2.47559 32.7207 2.47559 32.8656C2.47559 32.9742 2.60088 33.0587 2.72617 33.0466C2.864 33.0345 2.91412 32.9621 2.92665 32.8414C2.90159 32.7087 2.81388 32.6604 2.68859 32.6604Z" fill="#1DB100"/>
<path d="M3.79142 32.0197C3.67865 32.0318 3.616 32.0921 3.62853 32.2007C3.62853 32.3214 3.72877 32.4179 3.84153 32.3938C3.91671 32.3697 3.97936 32.2973 4.05453 32.249C4.01695 32.0921 3.91671 32.0076 3.79142 32.0197Z" fill="#1DB100"/>
<path d="M1.52329 33.3614C1.42305 33.3494 1.33535 33.4218 1.34788 33.5304C1.36041 33.6028 1.43558 33.6631 1.4857 33.7235H1.56088C1.59847 33.6511 1.68617 33.5786 1.67364 33.5183C1.68617 33.458 1.58594 33.3735 1.52329 33.3614Z" fill="#1DB100"/>
<path d="M62.3414 25.9036C62.1785 25.9036 62.0908 25.9761 62.0908 26.1091C62.0908 26.2542 62.1785 26.3389 62.3289 26.351C62.4792 26.351 62.592 26.2663 62.592 26.1333C62.592 25.9882 62.4918 25.9036 62.3414 25.9036Z" fill="#1DB100"/>
<path d="M63.3812 25.2749C63.2434 25.2749 63.1807 25.3594 63.1682 25.4801C63.1557 25.6007 63.2434 25.6611 63.3687 25.6732C63.519 25.6732 63.5566 25.5766 63.5691 25.468C63.5691 25.3473 63.5065 25.2749 63.3812 25.2749Z" fill="#1DB100"/>
<path d="M64.3964 24.8637C64.3838 24.9844 64.459 25.0447 64.5843 25.0568C64.7347 25.0568 64.7723 24.9482 64.7848 24.7792C64.7472 24.7551 64.6846 24.6826 64.6219 24.6706C64.4841 24.6585 64.4089 24.743 64.3964 24.8637Z" fill="#1DB100"/>
<path d="M80.4711 20.2707H78.4163V24.9002H75.0459V12.2205H81.3231C82.9144 12.2205 84.1423 12.571 84.9943 13.26C85.8463 13.949 86.2848 14.9522 86.2848 16.2577C86.2848 17.1763 86.0718 17.9499 85.6333 18.5664C85.1947 19.1829 84.5557 19.6301 83.7163 19.9323L87.0616 24.9123H83.2777L80.4711 20.2707ZM78.4163 17.9258H80.7468C81.4735 17.9258 82.0123 17.7928 82.338 17.539C82.6638 17.2851 82.8392 16.8741 82.8392 16.306C82.8392 15.7379 82.6763 15.3511 82.338 15.0973C81.9997 14.8434 81.4735 14.7105 80.7468 14.7105H78.4163V17.9258Z" fill="white"/>
<path d="M98.4509 22.9661L98.1878 24.7913C97.7994 24.9968 97.3483 25.0935 96.8346 25.0935C95.4063 25.0935 94.5417 24.5979 94.2661 23.6189C93.6647 24.61 92.4869 25.0935 90.7203 25.0935C89.7304 25.0935 88.9661 24.888 88.4274 24.4771C87.9011 24.0661 87.6255 23.4738 87.6255 22.6881C87.6255 21.9024 87.9262 21.2014 88.5276 20.6937C89.129 20.186 90.1188 19.7992 91.5096 19.5333L93.7649 19.1102V18.7597C93.7649 18.3245 93.6396 17.974 93.389 17.7202C93.1384 17.4663 92.7876 17.3334 92.3491 17.3334C91.8479 17.3334 91.4344 17.4542 91.1087 17.6839C90.7954 17.9136 90.5824 18.2883 90.4947 18.8201L87.7508 18.0465C87.9262 17.1158 88.4023 16.3905 89.1791 15.8708C89.9685 15.351 91.021 15.0972 92.3491 15.0972C93.9027 15.0972 95.0805 15.3994 95.8949 16.0158C96.7093 16.6323 97.1103 17.5509 97.1103 18.7839V22.2771C97.1103 22.7727 97.3483 23.0266 97.8244 23.0266C98.0876 23.0387 98.288 23.0145 98.4509 22.9661ZM93.2136 22.6156C93.5895 22.3618 93.7774 22.0354 93.7774 21.6244V20.8025L92.1611 21.1651C91.7351 21.2618 91.4344 21.3948 91.259 21.5398C91.0836 21.6849 90.9959 21.8903 90.9959 22.1684C90.9959 22.4464 91.0836 22.6398 91.259 22.7848C91.4344 22.9299 91.6725 22.9903 91.9732 22.9903C92.4243 22.9903 92.8377 22.8573 93.2136 22.6156Z" fill="white"/>
<path d="M108.575 15.9918C109.201 16.5841 109.515 17.4181 109.515 18.506V24.9002H106.132V19.4004C106.132 18.7477 106.006 18.2884 105.768 18.0104C105.518 17.7324 105.179 17.5994 104.728 17.5994C104.202 17.5994 103.764 17.7807 103.438 18.1433C103.1 18.506 102.937 19.0741 102.937 19.8235V24.9002H99.5537V15.2907H102.586L102.686 17.1401C102.999 16.4632 103.45 15.9555 104.039 15.617C104.628 15.2786 105.305 15.1094 106.094 15.1094C107.121 15.1094 107.961 15.3995 108.575 15.9918Z" fill="white"/>
<path d="M121.68 11.2292V24.9123H118.636L118.51 23.0871C118.222 23.7156 117.784 24.2112 117.22 24.5618C116.656 24.9244 116.004 25.1057 115.253 25.1057C113.962 25.1057 112.96 24.6705 112.233 23.8002C111.506 22.9299 111.143 21.7091 111.143 20.1498C111.143 18.5905 111.506 17.3213 112.233 16.439C112.96 15.5566 113.975 15.1093 115.265 15.1093C115.967 15.1093 116.568 15.2665 117.082 15.5928C117.583 15.9071 117.984 16.3543 118.272 16.9225V11.2292H121.68ZM117.746 22.1322C118.072 21.7575 118.26 21.2014 118.297 20.4883V19.7147C118.26 19.0136 118.072 18.4697 117.746 18.0829C117.42 17.6961 116.982 17.5027 116.443 17.5027C115.842 17.5027 115.378 17.7081 115.065 18.1312C114.739 18.5543 114.576 19.207 114.576 20.0894C114.576 20.9718 114.739 21.6245 115.065 22.0476C115.391 22.4706 115.854 22.6761 116.443 22.6761C116.982 22.7003 117.42 22.5069 117.746 22.1322Z" fill="white"/>
<path d="M132.431 16.4269C133.358 17.3093 133.809 18.5301 133.809 20.1015C133.809 21.6729 133.346 22.9058 132.431 23.7761C131.504 24.6585 130.213 25.0936 128.559 25.0936C126.906 25.0936 125.602 24.6585 124.688 23.7761C123.761 22.8937 123.31 21.6729 123.31 20.1015C123.31 18.5301 123.773 17.2972 124.688 16.4269C125.615 15.5445 126.906 15.1094 128.559 15.1094C130.226 15.1094 131.516 15.5445 132.431 16.4269ZM127.144 18.0708C126.843 18.4939 126.68 19.1708 126.68 20.1015C126.68 21.0322 126.83 21.7212 127.144 22.1322C127.444 22.5553 127.92 22.7608 128.559 22.7608C129.198 22.7608 129.662 22.5553 129.975 22.1322C130.276 21.7091 130.439 21.0322 130.439 20.1015C130.439 19.1708 130.288 18.4818 129.975 18.0708C129.675 17.6477 129.198 17.4423 128.559 17.4423C127.92 17.4302 127.457 17.6477 127.144 18.0708Z" fill="white"/>
<path d="M144.497 15.9918C145.123 16.5841 145.436 17.4181 145.436 18.506V24.9002H142.054V19.4004C142.054 18.7477 141.928 18.2884 141.69 18.0104C141.44 17.7324 141.101 17.5994 140.65 17.5994C140.124 17.5994 139.685 17.7807 139.36 18.1433C139.021 18.506 138.859 19.0741 138.859 19.8235V24.9002H135.476V15.2907H138.508L138.608 17.1401C138.921 16.4632 139.372 15.9555 139.961 15.617C140.55 15.2786 141.227 15.1094 142.016 15.1094C143.031 15.1094 143.87 15.3995 144.497 15.9918Z" fill="white"/>
<path d="M156.537 15.9918C157.164 16.5841 157.477 17.4181 157.477 18.506V24.9002H154.094V19.4004C154.094 18.7477 153.969 18.2884 153.731 18.0104C153.48 17.7324 153.142 17.5994 152.691 17.5994C152.165 17.5994 151.726 17.7807 151.4 18.1433C151.062 18.506 150.899 19.0741 150.899 19.8235V24.9002H147.516V15.2907H150.548L150.648 17.1401C150.962 16.4632 151.413 15.9555 152.002 15.617C152.591 15.2786 153.267 15.1094 154.056 15.1094C155.084 15.1094 155.911 15.3995 156.537 15.9918Z" fill="white"/>
<path d="M169.142 21.0442H162.351C162.451 21.6486 162.689 22.0837 163.04 22.3738C163.391 22.6518 163.854 22.7969 164.443 22.7969C164.932 22.7969 165.333 22.7123 165.646 22.531C165.959 22.3497 166.172 22.0837 166.273 21.7453L169.017 22.5914C168.741 23.4134 168.202 24.0298 167.388 24.465C166.586 24.9001 165.596 25.1056 164.431 25.1056C162.689 25.1056 161.361 24.6705 160.434 23.8002C159.507 22.9299 159.056 21.6969 159.056 20.1135C159.056 18.53 159.507 17.2971 160.409 16.4268C161.311 15.5565 162.589 15.1213 164.255 15.1213C165.922 15.1213 167.1 15.5444 167.952 16.4026C168.804 17.2487 169.242 18.4454 169.242 19.9805C169.242 20.4036 169.205 20.7662 169.142 21.0442ZM162.326 19.2794H166.072C165.909 18.0223 165.308 17.3938 164.243 17.3938C163.178 17.3938 162.526 18.0223 162.326 19.2794Z" fill="white"/>
<path d="M180.744 15.3027V24.9123H177.712L177.612 23.1233C176.986 24.4409 175.845 25.1057 174.166 25.1057C173.101 25.1057 172.275 24.8398 171.673 24.2837C171.072 23.7398 170.771 22.8816 170.771 21.7212V15.3027H174.154V20.8992C174.154 21.5278 174.267 21.9629 174.492 22.2289C174.718 22.4827 175.069 22.6157 175.532 22.6157C176.096 22.6157 176.535 22.4344 176.86 22.0717C177.186 21.7091 177.361 21.1531 177.361 20.4157V15.3269H180.744V15.3027Z" fill="white"/>
<path d="M190.066 15.3149L189.703 18.0829C189.565 18.0104 189.39 17.9378 189.164 17.8774C188.939 17.817 188.701 17.7928 188.45 17.7928C187.811 17.7928 187.285 17.9862 186.859 18.373C186.433 18.7598 186.22 19.3279 186.22 20.0532V24.9002H182.837V15.2907H185.819L185.957 17.3697C186.195 16.6445 186.571 16.0764 187.084 15.6896C187.598 15.3028 188.225 15.1094 188.989 15.1094C189.44 15.1094 189.803 15.1819 190.066 15.3149Z" fill="white"/>
<path d="M190.517 23.4134L192.271 21.564C192.848 22.4705 193.825 22.9299 195.216 22.9299C195.679 22.9299 196.043 22.8694 196.306 22.7486C196.569 22.6277 196.707 22.4585 196.707 22.253C196.707 22.0717 196.569 21.9145 196.293 21.7816C196.018 21.6486 195.554 21.5156 194.89 21.3827C193.399 21.1047 192.346 20.7179 191.707 20.2344C191.081 19.7509 190.755 19.0981 190.755 18.2883C190.755 17.7322 190.931 17.2246 191.294 16.729C191.657 16.2455 192.196 15.8466 192.923 15.5444C193.649 15.2422 194.526 15.0972 195.566 15.0972C196.707 15.0972 197.646 15.2422 198.361 15.5444C199.087 15.8466 199.676 16.2938 200.127 16.8982L198.373 18.5542C198.06 18.107 197.671 17.7806 197.233 17.5751C196.794 17.3696 196.268 17.2729 195.654 17.2729C195.178 17.2729 194.802 17.3454 194.539 17.4784C194.276 17.6235 194.138 17.7927 194.138 17.9982C194.138 18.1916 194.276 18.3487 194.552 18.4938C194.827 18.6267 195.303 18.7597 195.98 18.8926C197.446 19.1344 198.498 19.497 199.137 19.9805C199.776 20.464 200.102 21.1167 200.102 21.9508C200.102 22.8815 199.701 23.643 198.887 24.2232C198.072 24.8034 196.907 25.0935 195.366 25.0935C193.086 25.0935 191.469 24.5375 190.517 23.4134Z" fill="white"/>
<path d="M81.5989 29.3123V38.9823H79.4438L79.3561 37.6889C79.1557 38.1361 78.8424 38.4867 78.454 38.7405C78.0531 38.9943 77.5895 39.1152 77.0632 39.1152C76.1486 39.1152 75.4469 38.813 74.9332 38.1966C74.4195 37.5801 74.1689 36.7219 74.1689 35.6219C74.1689 34.522 74.4321 33.6275 74.9458 32.9989C75.4595 32.3704 76.1737 32.0561 77.0883 32.0561C77.5895 32.0561 78.0155 32.1649 78.3663 32.3946C78.7171 32.6242 79.0053 32.9385 79.2058 33.3374V29.3123H81.5989ZM78.8174 37.0241C79.0429 36.7582 79.1807 36.3714 79.2058 35.8637V35.3197C79.1807 34.8242 79.0429 34.4374 78.8174 34.1593C78.5918 33.8934 78.2786 33.7484 77.8902 33.7484C77.4642 33.7484 77.1384 33.8934 76.9129 34.1956C76.6874 34.4978 76.5621 34.9571 76.5621 35.5857C76.5621 36.2142 76.6748 36.6735 76.9129 36.9757C77.1384 37.2779 77.4642 37.423 77.8902 37.423C78.2786 37.423 78.5793 37.29 78.8174 37.0241Z" fill="white"/>
<path d="M85.2949 30.0978C85.558 30.4241 85.6833 30.835 85.6833 31.3425C85.6833 31.9347 85.5205 32.4786 85.1822 32.962C84.8439 33.4454 84.3677 33.82 83.7287 34.0859L82.6763 33.3608C83.6034 33.0224 84.1923 32.539 84.4304 31.9106L84.3552 31.8743C84.255 31.971 84.1172 32.0193 83.9292 32.0193C83.616 32.0193 83.3403 31.9226 83.1023 31.7293C82.8642 31.5359 82.7389 31.2459 82.7389 30.8833C82.7389 30.4724 82.8642 30.1582 83.1273 29.9407C83.3905 29.7231 83.7287 29.6023 84.1422 29.6023C84.6559 29.6144 85.0443 29.7715 85.2949 30.0978Z" fill="white"/>
<path d="M89.2167 29.2156L88.277 28.0189L87.3373 29.2156H85.5581L87.1243 26.9431H89.4297L90.9959 29.2156H89.2167ZM89.4923 38.9823H87.0742V30.0133H89.4923V38.9823Z" fill="white"/>
<path d="M93.9405 36.6372C93.9405 36.9393 93.9906 37.1569 94.0783 37.2899C94.166 37.4108 94.3414 37.4833 94.5795 37.4833C94.805 37.4833 95.0431 37.447 95.2937 37.3624L95.1433 38.7887C94.9804 38.8854 94.7549 38.97 94.4793 39.0305C94.2036 39.0909 93.9405 39.1272 93.6774 39.1272C92.9256 39.1272 92.3868 38.958 92.0485 38.6195C91.7102 38.2811 91.5474 37.7371 91.5474 36.9877V29.3242H93.9405V36.6372Z" fill="white"/>
<path d="M102.836 36.2504H98.0375C98.1127 36.6735 98.2756 36.9877 98.5262 37.1932C98.7767 37.3866 99.1025 37.4954 99.516 37.4954C99.8668 37.4954 100.142 37.435 100.368 37.302C100.594 37.1811 100.731 36.9877 100.807 36.746L102.749 37.3383C102.548 37.9185 102.172 38.3536 101.596 38.6679C101.032 38.9701 100.33 39.1272 99.5034 39.1272C98.2756 39.1272 97.3359 38.825 96.6843 38.2086C96.0328 37.5921 95.707 36.7218 95.707 35.5977C95.707 34.4735 96.0203 33.6032 96.6593 32.9868C97.2983 32.3703 98.2004 32.0681 99.3782 32.0681C100.556 32.0681 101.383 32.3703 101.984 32.9747C102.586 33.5791 102.886 34.4252 102.886 35.5131C102.911 35.8032 102.886 36.057 102.836 36.2504ZM98.025 35.0054H100.669C100.556 34.123 100.13 33.6758 99.3782 33.6758C98.6264 33.6758 98.1628 34.123 98.025 35.0054Z" fill="white"/>
<path d="M115.416 29.3123V38.9823H113.261L113.173 37.6889C112.973 38.1361 112.659 38.4867 112.271 38.7405C111.87 38.9943 111.406 39.1152 110.88 39.1152C109.965 39.1152 109.264 38.813 108.75 38.1966C108.236 37.5801 107.986 36.7219 107.986 35.6219C107.986 34.522 108.249 33.6275 108.763 32.9989C109.276 32.3704 109.991 32.0561 110.905 32.0561C111.406 32.0561 111.832 32.1649 112.183 32.3946C112.534 32.6242 112.822 32.9385 113.023 33.3374V29.3123H115.416ZM112.634 37.0241C112.86 36.7582 112.998 36.3714 113.023 35.8637V35.3197C112.998 34.8242 112.86 34.4374 112.634 34.1593C112.409 33.8934 112.095 33.7484 111.707 33.7484C111.281 33.7484 110.955 33.8934 110.73 34.1956C110.504 34.4978 110.379 34.9571 110.379 35.5857C110.379 36.2142 110.492 36.6735 110.73 36.9757C110.955 37.2779 111.281 37.423 111.707 37.423C112.095 37.423 112.396 37.29 112.634 37.0241Z" fill="white"/>
<path d="M123.685 36.2504H118.887C118.962 36.6735 119.125 36.9877 119.375 37.1932C119.626 37.3866 119.952 37.4954 120.365 37.4954C120.716 37.4954 120.992 37.435 121.217 37.302C121.443 37.1811 121.58 36.9877 121.656 36.746L123.598 37.3383C123.397 37.9185 123.021 38.3536 122.445 38.6679C121.881 38.9701 121.18 39.1272 120.353 39.1272C119.125 39.1272 118.185 38.825 117.533 38.2086C116.882 37.5921 116.556 36.7218 116.556 35.5977C116.556 34.4735 116.869 33.6032 117.508 32.9868C118.147 32.3703 119.05 32.0681 120.227 32.0681C121.405 32.0681 122.232 32.3703 122.833 32.9747C123.435 33.5791 123.736 34.4252 123.736 35.5131C123.761 35.8032 123.736 36.057 123.685 36.2504ZM118.874 35.0054H121.518C121.405 34.123 120.979 33.6758 120.227 33.6758C119.476 33.6758 119.012 34.123 118.874 35.0054Z" fill="white"/>
<path d="M131.704 31.8264V33.7242H135.538V35.5252H131.704V38.9701H129.286V30.0012H136.503V31.8023H131.704V31.8264Z" fill="white"/>
<path d="M142.417 32.213L142.166 34.1712C142.066 34.1229 141.941 34.0745 141.79 34.0262C141.628 33.9899 141.465 33.9657 141.289 33.9657C140.838 33.9657 140.462 34.0987 140.162 34.3767C139.861 34.6547 139.711 35.0536 139.711 35.5613V38.982H137.317V32.1889H139.435L139.535 33.6515C139.698 33.1317 139.974 32.7449 140.324 32.4669C140.688 32.1889 141.139 32.0559 141.665 32.0559C141.978 32.0559 142.229 32.1043 142.417 32.213Z" fill="white"/>
<path d="M150.486 37.6162L150.298 38.9095C150.022 39.0546 149.709 39.1271 149.346 39.1271C148.331 39.1271 147.729 38.7766 147.529 38.0755C147.103 38.7766 146.276 39.1271 145.023 39.1271C144.321 39.1271 143.782 38.982 143.407 38.6919C143.031 38.4018 142.843 37.9788 142.843 37.4348C142.843 36.8546 143.056 36.3832 143.482 36.0327C143.908 35.6701 144.609 35.4041 145.587 35.2107L147.178 34.9086V34.6668C147.178 34.3646 147.09 34.1108 146.915 33.9295C146.739 33.7482 146.489 33.6635 146.188 33.6635C145.837 33.6635 145.537 33.7482 145.311 33.9053C145.086 34.0624 144.935 34.3404 144.873 34.7031L142.93 34.1591C143.056 33.4943 143.394 32.9866 143.945 32.6119C144.497 32.2493 145.248 32.0559 146.188 32.0559C147.291 32.0559 148.118 32.2735 148.694 32.7086C149.27 33.1438 149.559 33.7965 149.559 34.6668V37.1327C149.559 37.4832 149.721 37.6645 150.06 37.6645C150.223 37.6645 150.373 37.6524 150.486 37.6162ZM146.777 37.3623C147.04 37.181 147.165 36.9513 147.165 36.6612V36.081L146.025 36.3349C145.725 36.4074 145.512 36.492 145.386 36.6008C145.261 36.7096 145.198 36.8546 145.198 37.048C145.198 37.2414 145.261 37.3865 145.386 37.4832C145.512 37.5799 145.674 37.6282 145.887 37.6282C146.226 37.6282 146.514 37.5436 146.777 37.3623Z" fill="white"/>
<path d="M157.64 32.6846C158.079 33.0956 158.304 33.6999 158.304 34.4615V38.9822H155.911V35.1021C155.911 34.6428 155.823 34.3164 155.648 34.123C155.472 33.9296 155.222 33.8329 154.909 33.8329C154.533 33.8329 154.232 33.9659 153.994 34.2197C153.756 34.4735 153.643 34.8724 153.643 35.4043V38.9943H151.25V32.2011H153.393L153.468 33.5065C153.693 33.023 154.006 32.6725 154.42 32.4308C154.833 32.189 155.322 32.0681 155.873 32.0681C156.613 32.056 157.201 32.2615 157.64 32.6846Z" fill="white"/>
<path d="M165.521 32.6482C166.06 33.035 166.386 33.5427 166.523 34.1712L164.293 34.8723C164.193 34.0987 163.842 33.6998 163.203 33.6998C162.276 33.6998 161.812 34.3404 161.812 35.6096C161.812 36.8788 162.276 37.4711 163.203 37.4711C163.867 37.4711 164.256 37.1085 164.368 36.3711L166.523 37.036C166.423 37.6524 166.085 38.148 165.509 38.5348C164.932 38.9216 164.168 39.115 163.216 39.115C162 39.115 161.061 38.8128 160.397 38.1964C159.745 37.5799 159.407 36.7096 159.407 35.5855C159.407 34.4613 159.733 33.6031 160.384 32.9866C161.036 32.3702 161.95 32.0559 163.103 32.0559C164.193 32.0559 164.982 32.2493 165.521 32.6482Z" fill="white"/>
<path d="M174.329 36.2504H169.53C169.605 36.6735 169.768 36.9877 170.019 37.1932C170.269 37.3866 170.595 37.4954 171.009 37.4954C171.359 37.4954 171.635 37.435 171.861 37.302C172.086 37.1811 172.224 36.9877 172.299 36.746L174.241 37.3383C174.041 37.9185 173.665 38.3536 173.089 38.6679C172.525 38.9701 171.823 39.1272 170.996 39.1272C169.768 39.1272 168.829 38.825 168.177 38.2086C167.525 37.5921 167.2 36.7218 167.2 35.5977C167.2 34.4735 167.513 33.6032 168.152 32.9868C168.791 32.3703 169.693 32.0681 170.871 32.0681C172.049 32.0681 172.876 32.3703 173.477 32.9747C174.078 33.5791 174.379 34.4252 174.379 35.5131C174.404 35.8032 174.379 36.057 174.329 36.2504ZM169.518 35.0054H172.161C172.049 34.123 171.623 33.6758 170.871 33.6758C170.119 33.6758 169.655 34.123 169.518 35.0054Z" fill="white"/>
</svg>
